<?xml version="1.0" standalone="no"?>
<!DOCTYPE svg PUBLIC "-//W3C//DTD SVG 1.1//EN" "http://www.w3.org/Graphics/SVG/1.1/DTD/svg11.dtd" >
<svg>
<metadata>
Created by FontForge 20090622 at Mon May  6 19:34:39 2019
 By deploy user
Copyright (c) 2008-2011 by Accademia di Belle Arti di Urbino and others. All rights reserved.
</metadata>
<defs>
<font id="TitilliumText-ExtraBold" horiz-adv-x="560" >
  <font-face 
    font-family="TitilliumText"
    font-weight="800"
    font-stretch="normal"
    units-per-em="1000"
    panose-1="2 0 0 0 0 0 0 0 0 0"
    ascent="750"
    descent="-250"
    x-height="500"
    cap-height="680"
    bbox="-224 -311 1059 1114"
    underline-thickness="30"
    underline-position="-80"
    unicode-range="U+000D-U+F6C3"
  />
<missing-glyph horiz-adv-x="235" 
 />
    <glyph glyph-name=".notdef" horiz-adv-x="235" 
 />
    <glyph glyph-name=".null" horiz-adv-x="0" 
 />
    <glyph glyph-name=".null" horiz-adv-x="0" 
 />
    <glyph glyph-name="nonmarkingreturn" horiz-adv-x="333" 
 />
    <glyph glyph-name="CR" unicode="&#xd;" horiz-adv-x="235" 
 />
    <glyph glyph-name="DLE" horiz-adv-x="0" 
 />
    <glyph glyph-name="space" unicode=" " horiz-adv-x="220" 
 />
    <glyph glyph-name="exclam" unicode="!" horiz-adv-x="280" 
d="M68 0v161h144v-161h-144zM81 250l-13 430h145l-14 -430h-118z" />
    <glyph glyph-name="quotedbl" unicode="&#x22;" horiz-adv-x="411" 
d="M350 440h-118l-4 240h129zM178 440h-118l-5 240h129z" />
    <glyph glyph-name="numbersign" unicode="#" 
d="M544 149h-96v-149h-116v149h-104v-149h-116v149h-96v112h96v126h-96v112h96v161h116v-161h104v161h116v-161h96v-112h-96v-126h96v-112zM332 261v126h-104v-126h104z" />
    <glyph glyph-name="dollar" unicode="$" 
d="M495 646l-11 -106q-73 8 -135 12l-20 -161q104 -33 141.5 -72.5t37.5 -119.5q0 -104 -63 -157.5t-165 -53.5h-1l-15 -118q-74 3 -74 7l14 116q-32 4 -68 10t-56 11l-20 4l13 104q79 -11 146 -15l22 174q-103 31 -146 75t-43 120q0 99 60 147.5t165 48.5h13l18 138h74
l-18 -144q30 -3 63 -8t51 -8zM185 485q0 -24 15 -39t58 -31l17 139q-90 -4 -90 -69zM375 190q0 24 -13.5 39.5t-48.5 29.5l-19 -153q81 9 81 84z" />
    <glyph glyph-name="percent" unicode="%" 
d="M125 -8l235 707l73 -26l-235 -705zM134 672q120 0 120 -145q0 -146 -120 -146t-120 146q0 145 120 145zM112 527q0 -36 4.5 -51t17.5 -15t17.5 15t4.5 51t-4.5 50.5t-17.5 14.5t-17.5 -14.5t-4.5 -50.5zM426 279q120 0 120 -145q0 -146 -120 -146t-120 146q0 145 120 145
zM404 134q0 -36 4.5 -51t17.5 -15t17.5 15t4.5 51t-4.5 50.5t-17.5 14.5t-17.5 -14.5t-4.5 -50.5z" />
    <glyph glyph-name="ampersand" unicode="&#x26;" horiz-adv-x="701" 
d="M316 712q98 0 151 -41.5t53 -120.5q0 -65 -30 -106t-107 -95l98 -98q6 15 12 58t7 70l130 -3q-15 -116 -51 -203l112 -98l-76 -87l-106 87q-35 -38 -89.5 -62.5t-115.5 -24.5q-146 0 -207.5 52.5t-61.5 155.5q0 81 34 127.5t108 75.5q-41 50 -53.5 81t-12.5 81
q0 70 56 110.5t149 40.5zM287 108q40 0 78 11t53 29l-173 173q-74 -36 -74 -114q0 -99 116 -99zM247 531q0 -40 45 -88l17 -18q41 30 58 53.5t17 56.5q0 63 -68 63q-69 0 -69 -67z" />
    <glyph glyph-name="quotesingle" unicode="'" horiz-adv-x="239" 
d="M60 440l-4 240h129l-7 -240h-118z" />
    <glyph glyph-name="parenleft" unicode="(" horiz-adv-x="308" 
d="M154 750h127q-11 -28 -26.5 -75t-42 -166.5t-26.5 -207.5t23.5 -194.5t47.5 -168.5l24 -63h-127q-5 8 -12.5 22t-27.5 59t-35.5 92t-28 116.5t-12.5 136.5t12 138t29 124t34 97t29 67z" />
    <glyph glyph-name="parenright" unicode=")" horiz-adv-x="308" 
d="M27 750h127q5 -9 12.5 -24.5t27.5 -64.5t35.5 -99t28 -122t12.5 -139t-12 -135.5t-29 -118.5t-34 -90.5t-29 -60.5l-12 -21h-127q11 25 26.5 68.5t42 156.5t26.5 201t-24 200.5t-48 180.5z" />
    <glyph glyph-name="asterisk" unicode="*" horiz-adv-x="425" 
d="M389 499h-123l38 -120l-73 -22l-41 121l-103 -79l-47 59l105 78l-102 73l46 63l101 -73l39 121l75 -25l-38 -122h123v-74z" />
    <glyph glyph-name="plus" unicode="+" 
d="M50 191v120h169v168h120v-168h171v-120h-171v-170h-120v170h-169z" />
    <glyph glyph-name="comma" unicode="," horiz-adv-x="263" 
d="M20 -123l50 260h148l-90 -260h-108z" />
    <glyph glyph-name="hyphen" unicode="-" horiz-adv-x="408" 
d="M56 205v122h296v-122h-296z" />
    <glyph glyph-name="period" unicode="." horiz-adv-x="256" 
d="M56 0v166h144v-166h-144z" />
    <glyph glyph-name="slash" unicode="/" horiz-adv-x="466" 
d="M31 8l288 710l118 -42l-288 -710z" />
    <glyph glyph-name="zero" unicode="0" 
d="M280 672q127 0 191.5 -82t64.5 -264q0 -181 -64 -259.5t-192 -78.5t-192 78.5t-64 259.5q0 182 64.5 264t191.5 82zM281 552q-62 0 -88.5 -50t-26.5 -176q0 -120 27 -169t88 -49t87 49t26 169q0 127 -26 176.5t-87 49.5z" />
    <glyph glyph-name="one" unicode="1" 
d="M74 515l218 145h126v-660h-138v504l-143 -92z" />
    <glyph glyph-name="two" unicode="2" 
d="M493 0h-428v117l141 143q75 77 104.5 118t29.5 85q0 49 -24.5 68t-83.5 19q-30 0 -69 -4t-63 -8l-24 -3l-7 107q98 30 198 30q111 0 163 -47.5t52 -141.5q0 -74 -32 -128t-116 -131l-115 -104h274v-120z" />
    <glyph glyph-name="three" unicode="3" 
d="M71 534l-9 102q92 36 192 36q127 0 179 -43.5t52 -138.5q0 -97 -77 -148q48 -26 68.5 -54t20.5 -89q0 -107 -53.5 -159t-171.5 -52q-44 0 -97.5 8.5t-85.5 17.5l-32 8l7 105q112 -19 188 -19q103 0 103 88q0 37 -26.5 59t-69.5 22h-133v114h133q33 0 58.5 28t25.5 62
q0 71 -99 71q-35 0 -78 -4.5t-69 -9.5z" />
    <glyph glyph-name="four" unicode="4" 
d="M320 0v109h-280v105l163 446h152l-177 -431h142v185h138v-185h63v-120h-63v-109h-138z" />
    <glyph glyph-name="five" unicode="5" 
d="M87 660h403v-120h-295l-17 -143q62 24 118 24q214 0 214 -199q0 -112 -59 -173t-167 -61q-46 0 -104.5 9t-93.5 19l-36 9l15 102q121 -19 202 -19q49 0 75 26t26 73q0 50 -22 72t-70 22q-31 0 -62.5 -4.5t-47.5 -8.5l-15 -4l-82 19z" />
    <glyph glyph-name="six" unicode="6" 
d="M508 643l-12 -106q-102 15 -186 15q-66 0 -99.5 -41.5t-33.5 -112.5l21 6q21 6 52.5 12.5t52.5 6.5q113 0 170 -52t57 -162q0 -109 -64 -165t-178 -56q-129 0 -191 88.5t-62 250.5q0 182 71 263.5t204 81.5q37 0 86.5 -7t80.5 -15zM291 303q-24 0 -52.5 -5.5t-45.5 -11.5
l-17 -5q0 -173 112 -173q48 0 74 26.5t26 74.5q0 94 -97 94z" />
    <glyph glyph-name="seven" unicode="7" 
d="M69 537v123h422v-156l-235 -516l-128 36l225 481v32h-284z" />
    <glyph glyph-name="eight" unicode="8" 
d="M278 672q109 0 176 -48t67 -133q0 -58 -14 -87t-58 -64q44 -37 63 -70t19 -91q0 -98 -70 -144.5t-183 -46.5q-250 0 -250 180q0 64 19.5 99.5t63.5 72.5q-42 34 -57 66.5t-15 85.5q0 85 65 132.5t174 47.5zM278 112q105 0 105 88q0 52 -59 75h-88q-60 -23 -60 -75
q0 -88 102 -88zM280 548q-45 0 -69 -20t-24 -58q0 -44 49 -78h88q49 34 49 78q0 78 -93 78z" />
    <glyph glyph-name="nine" unicode="9" 
d="M50 17l12 106q102 -15 186 -15q133 0 133 162l-21 -7q-21 -7 -52.5 -15t-52.5 -8q-109 0 -168 53t-59 158q0 104 65 162.5t177 58.5q127 0 190 -88.5t63 -249.5q0 -188 -70 -267t-205 -79q-37 0 -86.5 7t-80.5 15zM267 360q24 0 52.5 6t45.5 12l17 5q0 169 -112 169
q-48 0 -74 -26.5t-26 -74.5q0 -91 97 -91z" />
    <glyph glyph-name="colon" unicode=":" horiz-adv-x="256" 
d="M56 289v166h144v-166h-144zM56 0v166h144v-166h-144z" />
    <glyph glyph-name="semicolon" unicode=";" horiz-adv-x="279" 
d="M27 -123l50 260h148l-90 -260h-108zM69 289v166h144v-166h-144z" />
    <glyph glyph-name="less" unicode="&#x3c;" 
d="M472 353l-261 -99l261 -108v-136l-406 186v110l406 183v-136z" />
    <glyph glyph-name="equal" unicode="=" 
d="M58 295v121h444v-121h-444zM58 87v121h444v-121h-444z" />
    <glyph glyph-name="greater" unicode="&#x3e;" 
d="M349 254l-261 99v136l406 -183v-110l-406 -186v136z" />
    <glyph glyph-name="question" unicode="?" horiz-adv-x="437" 
d="M405 528q0 -70 -15.5 -105.5t-66.5 -73.5q-49 -37 -62 -57t-13 -44v-31h-107q-31 34 -31 91q0 36 72 94q55 44 69.5 63.5t14.5 47.5q0 59 -85 59q-30 0 -66 -4t-57 -8l-21 -4l-7 101q86 35 170 35q108 0 156.5 -39t48.5 -125zM119 0v161h144v-161h-144z" />
    <glyph glyph-name="at" unicode="@" horiz-adv-x="973" 
d="M944 305v-8q0 -154 -48.5 -225.5t-144.5 -71.5q-29 0 -53.5 6t-38.5 14t-24 16t-13 14l-4 6q-80 -56 -148 -56q-94 0 -140.5 58.5t-46.5 192.5q0 127 43.5 188t147.5 61q16 0 39 -6t37 -12l15 -7v13h134v-179q0 -49 0.5 -78t2.5 -53.5t5 -35.5t9.5 -19t13.5 -9.5t19 -1.5
q32 0 46.5 39t14.5 146v9q0 160 -73.5 232.5t-233.5 72.5q-161 0 -246 -92t-85 -258q0 -185 76 -268.5t255 -83.5l143 9l5 -117q-90 -10 -148 -10q-115 0 -198 23t-144.5 76.5t-92 145.5t-30.5 225q0 231 125 349.5t340 118.5q219 0 330 -108.5t111 -315.5zM481 118
q38 0 90 25q-6 36 -6 106v123q-42 10 -61 10q-52 0 -68.5 -29t-16.5 -102q0 -133 62 -133z" />
    <glyph glyph-name="A" unicode="A" horiz-adv-x="602" 
d="M17 0l153 680h262l153 -680h-138l-27 123h-238l-27 -123h-138zM277 566l-69 -323h186l-69 323h-48z" />
    <glyph glyph-name="B" unicode="B" horiz-adv-x="609" 
d="M74 680h267q106 0 159 -42.5t53 -137.5q0 -57 -17 -90.5t-58 -59.5q45 -19 66.5 -55t21.5 -100q0 -99 -58 -147t-163 -48h-271v680zM338 284h-126v-166h126q45 0 66.5 18t21.5 66q0 82 -88 82zM334 562h-122v-162h123q78 0 78 82q0 80 -79 80z" />
    <glyph glyph-name="C" unicode="C" horiz-adv-x="543" 
d="M502 124l3 -113q-106 -23 -198 -23q-78 0 -129 21t-80 67t-40 108t-11 156q0 197 55.5 274.5t204.5 77.5q86 0 199 -27l-4 -110q-99 15 -175 15q-55 0 -83 -17.5t-41.5 -66.5t-13.5 -146q0 -139 27.5 -184.5t114.5 -45.5q78 0 171 14z" />
    <glyph glyph-name="D" unicode="D" horiz-adv-x="638" 
d="M303 0h-229v680h229q88 0 145 -18.5t88.5 -61t43.5 -100t12 -147.5q0 -94 -11 -154.5t-41.5 -108t-88.5 -69t-148 -21.5zM450 353q0 62 -4 96t-19 62t-44.5 38.5t-79.5 10.5h-91v-440h91q40 0 67 10.5t42.5 27.5t24 48.5t11 63.5t2.5 83z" />
    <glyph glyph-name="E" unicode="E" horiz-adv-x="554" 
d="M74 0v680h440v-120h-302v-159h242v-118h-242v-163h302v-120h-440z" />
    <glyph glyph-name="F" unicode="F" horiz-adv-x="531" 
d="M74 0v680h434v-120h-296v-200h242v-120h-242v-240h-138z" />
    <glyph glyph-name="G" unicode="G" horiz-adv-x="611" 
d="M357 244v120h198v-353q-143 -23 -232 -23q-159 0 -218.5 85t-59.5 267q0 188 62 270t211 82q47 0 106 -7t95 -14l36 -7l-4 -107q-120 13 -211 13q-62 0 -93 -18t-45.5 -66.5t-14.5 -145.5q0 -138 29 -185t120 -47l83 4v132h-62z" />
    <glyph glyph-name="H" unicode="H" horiz-adv-x="677" 
d="M465 0v282h-253v-282h-138v680h138v-278h253v278h138v-680h-138z" />
    <glyph glyph-name="I" unicode="I" horiz-adv-x="286" 
d="M74 0v680h138v-680h-138z" />
    <glyph glyph-name="J" unicode="J" horiz-adv-x="302" 
d="M232 680l1 -565q0 -109 -48.5 -147t-165.5 -38v120q40 0 58 15t18 56v559h137z" />
    <glyph glyph-name="K" unicode="K" horiz-adv-x="593" 
d="M418 0l-114 271l-92 -10v-261h-138v680h138v-299l92 10l112 289h157l-148 -341l152 -339h-159z" />
    <glyph glyph-name="L" unicode="L" horiz-adv-x="472" 
d="M461 0h-387v680h138v-558h249v-122z" />
    <glyph glyph-name="M" unicode="M" horiz-adv-x="858" 
d="M74 0v680h235l120 -496l120 496h235v-680h-138v526h-15l-133 -496h-138l-133 496h-15v-526h-138z" />
    <glyph glyph-name="N" unicode="N" horiz-adv-x="693" 
d="M74 0v680h233l164 -560h10v560h138v-680h-227l-170 560h-10v-560h-138z" />
    <glyph glyph-name="O" unicode="O" horiz-adv-x="652" 
d="M326 108q81 0 110.5 52.5t29.5 175.5q0 124 -30 180t-110 56t-110 -56t-30 -180q0 -123 29.5 -175.5t110.5 -52.5zM326 -12q-155 0 -218.5 84.5t-63.5 263.5q0 181 63.5 268.5t218.5 87.5t218.5 -87.5t63.5 -268.5q0 -179 -63.5 -263.5t-218.5 -84.5z" />
    <glyph glyph-name="P" unicode="P" horiz-adv-x="589" 
d="M324 198h-112v-198h-138v680h250q242 0 242 -236q0 -119 -61.5 -182.5t-180.5 -63.5zM212 316h111q103 0 103 128q0 63 -25 90.5t-78 27.5h-111v-246z" />
    <glyph glyph-name="Q" unicode="Q" horiz-adv-x="652" 
d="M460 -156l-90 147q-10 -3 -44 -3q-156 0 -219 84t-63 264q0 181 63.5 268.5t218.5 87.5t218.5 -87.5t63.5 -268.5q0 -222 -105 -299l83 -134zM326 108q81 0 110.5 52t29.5 176t-30 180t-110 56t-110 -56t-30 -180t29.5 -176t110.5 -52z" />
    <glyph glyph-name="R" unicode="R" horiz-adv-x="620" 
d="M345 228h-133v-228h-138v680h264q240 0 240 -224q0 -133 -100 -196l97 -260h-151zM437 454q0 50 -25.5 79t-73.5 29h-126v-216h128q49 0 73 30t24 78z" />
    <glyph glyph-name="S" unicode="S" horiz-adv-x="544" 
d="M493 665l-11 -109q-141 16 -199 16q-109 0 -109 -72q0 -32 27 -49t114 -45q112 -36 152 -76.5t40 -124.5q0 -107 -65 -162t-170 -55q-41 0 -98 8t-93 16l-36 7l14 107q134 -18 205 -18q106 0 106 88q0 32 -24.5 50t-97.5 39q-116 33 -163.5 78.5t-47.5 126.5
q0 102 62 152t170 50q40 0 96 -7t92 -13z" />
    <glyph glyph-name="T" unicode="T" horiz-adv-x="526" 
d="M13 558v122h500v-122h-180v-558h-138v558h-182z" />
    <glyph glyph-name="U" unicode="U" horiz-adv-x="654" 
d="M206 227q0 -119 121 -119t121 119v453h138v-450q0 -125 -64.5 -183.5t-194.5 -58.5t-194.5 58.5t-64.5 183.5v450h138v-453z" />
    <glyph glyph-name="V" unicode="V" horiz-adv-x="603" 
d="M442 680h145l-158 -680h-255l-158 680h145l118 -560h45z" />
    <glyph glyph-name="W" unicode="W" horiz-adv-x="930" 
d="M19 680h145l84 -562h15l122 562h160l122 -562h15l84 562h145l-130 -680h-209l-107 517l-107 -517h-209z" />
    <glyph glyph-name="X" unicode="X" horiz-adv-x="569" 
d="M162 680l126 -250l129 250h143l-196 -347l196 -333h-153l-126 235l-129 -235h-143l196 326l-196 354h153z" />
    <glyph glyph-name="Y" unicode="Y" horiz-adv-x="557" 
d="M348 275v-275h-138v275l-210 405h153l125 -271l125 271h153z" />
    <glyph glyph-name="Z" unicode="Z" horiz-adv-x="532" 
d="M41 560v120h450v-120l-284 -422v-18h284v-120h-450v119l284 423v18h-284z" />
    <glyph glyph-name="bracketleft" unicode="[" horiz-adv-x="355" 
d="M320 749v-120h-115v-632h115v-120h-252v872h252z" />
    <glyph glyph-name="backslash" unicode="\" horiz-adv-x="498" 
d="M466 13l-116 -49l-318 700l114 52z" />
    <glyph glyph-name="bracketright" unicode="]" horiz-adv-x="355" 
d="M35 629v120h252v-872h-252v120h115v632h-115z" />
    <glyph glyph-name="asciicircum" unicode="^" 
d="M383 313l-109 217l-113 -217h-140l194 347h114l194 -347h-140z" />
    <glyph glyph-name="underscore" unicode="_" horiz-adv-x="620" 
d="M96 -73h428v-114h-428v114z" />
    <glyph glyph-name="grave" unicode="`" horiz-adv-x="268" 
d="M23 753l252 -102l-30 -87l-262 74z" />
    <glyph glyph-name="a" unicode="a" horiz-adv-x="511" 
d="M445 344v-208q2 -24 8 -33.5t25 -13.5l-4 -101q-51 0 -81.5 7t-61.5 28q-72 -35 -147 -35q-155 0 -155 164q0 80 43 113.5t132 39.5l107 8v31q0 31 -14 42.5t-45 11.5l-188 -8l-4 93q107 29 203 29q97 0 139.5 -40t42.5 -128zM311 220l-91 -8q-56 -5 -56 -56
q0 -59 49 -59q19 0 43.5 4t39.5 8l15 4v107z" />
    <glyph glyph-name="b" unicode="b" horiz-adv-x="544" 
d="M304 512q105 0 153.5 -57.5t48.5 -197.5q0 -156 -56 -212.5t-193 -56.5q-21 0 -70 3.5t-87 6.5l-38 4v698h134v-215q64 27 108 27zM257 108q67 0 90 32.5t23 116.5q0 135 -84 135q-18 0 -40.5 -3t-35.5 -7l-14 -3v-267q46 -4 61 -4z" />
    <glyph glyph-name="c" unicode="c" horiz-adv-x="446" 
d="M249 512q26 0 66 -5.5t67 -10.5l27 -6l-4 -106q-79 8 -117 8q-69 0 -91.5 -29.5t-22.5 -107.5q0 -86 22.5 -116.5t92.5 -30.5l116 8l4 -107q-107 -21 -163 -21q-111 0 -159.5 62.5t-48.5 204.5q0 134 50 195.5t161 61.5z" />
    <glyph glyph-name="d" unicode="d" horiz-adv-x="549" 
d="M487 700v-700h-133v21q-70 -33 -121 -33q-109 0 -152 63t-43 201q0 135 51.5 197.5t155.5 62.5q16 0 43 -3.5t46 -6.5l19 -4v202h134zM256 108q21 0 45 4t38 8l14 3v263q-55 10 -98 10q-81 0 -81 -144q0 -78 18 -111t64 -33z" />
    <glyph glyph-name="e" unicode="e" horiz-adv-x="510" 
d="M273 106q36 0 82.5 2t74.5 4l28 3l2 -99q-115 -28 -208 -28q-113 0 -164 60t-51 195q0 269 221 269q218 0 218 -226l-10 -93h-294q1 -46 24.5 -66.5t76.5 -20.5zM171 295h173q0 60 -19 83.5t-67 23.5q-47 0 -66.5 -24.5t-20.5 -82.5z" />
    <glyph glyph-name="f" unicode="f" horiz-adv-x="357" 
d="M220 386v-386h-134v386h-54v114h54v22q0 108 32 149t114 41q15 0 43.5 -3t49.5 -7l21 -3l-2 -109q-44 2 -76 2q-28 0 -38 -16t-10 -55v-21h121v-114h-121z" />
    <glyph glyph-name="g" unicode="g" horiz-adv-x="534" 
d="M278 -230q-120 0 -180.5 30t-60.5 109q0 63 72 119q-37 25 -37 76q0 11 10 31t20 35l9 14q-68 49 -68 149q0 91 57.5 134t152.5 43q20 0 45 -3t40 -7l16 -3l161 5v-107l-75 6q22 -34 22 -68q0 -100 -51 -138t-160 -38q-23 0 -41 4q-10 -26 -10 -39q0 -20 17 -26t80 -7
q126 -1 172 -33.5t46 -117.5q0 -86 -66 -127t-171 -41zM286 -27l-90 7q-27 -27 -27 -57q0 -43 110 -43q101 0 101 50q0 27 -18 34.5t-76 8.5zM254 259q76 0 76 74q0 73 -76 73q-77 0 -77 -73q0 -74 77 -74z" />
    <glyph glyph-name="h" unicode="h" horiz-adv-x="553" 
d="M196 0h-134v700h134v-224q69 36 124 36q100 0 138 -59t38 -182v-271h-134v268q0 63 -15 93.5t-60 30.5q-20 0 -42.5 -4t-35.5 -8l-13 -4v-376z" />
    <glyph glyph-name="i" unicode="i" horiz-adv-x="258" 
d="M62 0v500h134v-500h-134zM62 564v136h134v-136h-134z" />
    <glyph glyph-name="j" unicode="j" horiz-adv-x="259" 
d="M63 24v476h134v-477q0 -102 -35.5 -150.5t-142.5 -102.5l-53 99q45 30 63 47t26 40.5t8 67.5zM63 564v136h134v-136h-134z" />
    <glyph glyph-name="k" unicode="k" horiz-adv-x="515" 
d="M196 0h-134v700h134v-398l51 9l99 189h150l-130 -237l137 -263h-151l-101 195l-55 -9v-186z" />
    <glyph glyph-name="l" unicode="l" horiz-adv-x="270" 
d="M68 0v700h134v-700h-134z" />
    <glyph glyph-name="m" unicode="m" horiz-adv-x="839" 
d="M196 0h-134v500h133v-28q69 40 118 40q81 0 125 -47q92 47 168 47q99 0 137.5 -57.5t38.5 -183.5v-271h-134v267q0 64 -14 94.5t-56 30.5q-18 0 -41 -5t-37 -9l-15 -5q4 -75 4 -114v-259h-134v257q0 74 -13 104.5t-57 30.5q-20 0 -42 -4.5t-35 -9.5l-12 -4v-374z" />
    <glyph glyph-name="n" unicode="n" horiz-adv-x="553" 
d="M196 0h-134v500h133v-28q68 40 125 40q100 0 138 -59t38 -182v-271h-134v267q0 64 -15 94.5t-60 30.5q-21 0 -43.5 -4.5t-35.5 -9.5l-12 -4v-374z" />
    <glyph glyph-name="o" unicode="o" horiz-adv-x="532" 
d="M266 512q124 0 177 -68.5t53 -192.5q0 -263 -230 -263t-230 263q0 124 53 192.5t177 68.5zM266 102q53 0 73.5 36t20.5 113t-20.5 112t-73.5 35t-73.5 -35t-20.5 -112t20.5 -113t73.5 -36z" />
    <glyph glyph-name="p" unicode="p" horiz-adv-x="544" 
d="M62 -210v710h133v-27q65 39 114 39q101 0 149 -60.5t48 -197.5q0 -153 -53 -209.5t-174 -56.5q-16 0 -37 2t-34 4l-12 2v-206h-134zM283 392q-18 0 -40 -5t-35 -10l-12 -5v-262q45 -6 73 -6q58 0 79.5 34t21.5 116q0 138 -87 138z" />
    <glyph glyph-name="q" unicode="q" horiz-adv-x="543" 
d="M239 -12q-105 0 -153 57.5t-48 197.5q0 157 55.5 213t192.5 56q26 0 74.5 -3t84.5 -7l36 -3v-709h-134v225q-64 -27 -108 -27zM286 396q-67 0 -90.5 -34.5t-23.5 -118.5q0 -135 85 -135q18 0 40.5 3t36.5 7l13 3v271q-37 4 -61 4z" />
    <glyph glyph-name="r" unicode="r" horiz-adv-x="372" 
d="M62 0v500h133v-53q84 50 160 65v-135q-39 -8 -79 -18.5t-60 -16.5l-20 -7v-335h-134z" />
    <glyph glyph-name="s" unicode="s" horiz-adv-x="472" 
d="M423 486l-2 -111q-124 16 -182 16q-41 0 -55.5 -9t-14.5 -31q0 -17 19.5 -24.5t91.5 -20.5q89 -16 123 -49t34 -107q0 -162 -201 -162q-33 0 -81 6t-79 12l-32 6l4 112q124 -16 175 -16q46 0 63.5 9.5t17.5 29.5q0 18 -18.5 27t-84.5 20q-89 15 -127 46t-38 108
q0 82 54 122.5t139 40.5q32 0 80.5 -6.5t80.5 -12.5z" />
    <glyph glyph-name="t" unicode="t" horiz-adv-x="364" 
d="M339 386h-123v-205q0 -30 1.5 -42.5t11 -21.5t29.5 -9l76 2l6 -107q-67 -15 -102 -15q-90 0 -123 40.5t-33 149.5v208h-59v114h59v139h134v-139h123v-114z" />
    <glyph glyph-name="u" unicode="u" horiz-adv-x="553" 
d="M357 500h134v-500h-133v28q-72 -40 -125 -40q-104 0 -140 57.5t-36 192.5v262h134v-264q0 -74 12 -101t58 -27q22 0 46 4.5t37 9.5l13 4v374z" />
    <glyph glyph-name="v" unicode="v" horiz-adv-x="498" 
d="M15 500h140l80 -386h28l84 386h136l-120 -500h-228z" />
    <glyph glyph-name="w" unicode="w" horiz-adv-x="772" 
d="M24 500h132l61 -386h24l76 376h138l76 -376h24l61 386h132l-95 -500h-210l-57 306l-57 -306h-210z" />
    <glyph glyph-name="x" unicode="x" horiz-adv-x="474" 
d="M14 500h143l80 -155l81 155h143l-142 -245l142 -255h-143l-81 153l-80 -153h-143l137 251z" />
    <glyph glyph-name="y" unicode="y" horiz-adv-x="500" 
d="M16 500h132l91 -386h23l91 386h132l-176 -710h-131l55 210h-94z" />
    <glyph glyph-name="z" unicode="z" horiz-adv-x="454" 
d="M41 380v120h371v-120l-210 -260h210v-120h-371v120l210 260h-210z" />
    <glyph glyph-name="braceleft" unicode="{" horiz-adv-x="361" 
d="M259 172q0 -14 -3.5 -57t-3.5 -60q0 -34 14.5 -53t56.5 -22v-114q-111 4 -156.5 43t-45.5 129q0 21 3.5 65.5t3.5 55.5q0 73 -112 102v104q112 26 112 94q0 13 -3.5 60t-3.5 67q0 95 45.5 133t158.5 42v-114q-43 -4 -58.5 -21t-15.5 -50q0 -17 3.5 -65.5t3.5 -62.5
q0 -63 -20.5 -90t-91.5 -44q70 -17 91.5 -47.5t21.5 -94.5z" />
    <glyph glyph-name="bar" unicode="|" horiz-adv-x="268" 
d="M67 -210v910h134v-910h-134z" />
    <glyph glyph-name="braceright" unicode="}" horiz-adv-x="361" 
d="M102 172q0 64 21.5 94.5t91.5 47.5q-71 17 -91.5 44t-20.5 90q0 14 3.5 62.5t3.5 65.5q0 33 -15.5 50t-58.5 21v114q113 -4 158.5 -42t45.5 -133q0 -20 -3.5 -67t-3.5 -60q0 -68 112 -94v-104q-112 -29 -112 -102q0 -11 3.5 -55.5t3.5 -65.5q0 -90 -45.5 -129t-156.5 -43
v114q42 3 56.5 22t14.5 53q0 17 -3.5 60t-3.5 57z" />
    <glyph glyph-name="asciitilde" unicode="~" 
d="M489 328l8 -107q-6 -6 -16.5 -14.5t-40 -22.5t-56.5 -14q-29 0 -108 22t-96 22q-21 0 -48.5 -10t-43.5 -20l-17 -9l-10 107q63 52 123 52q28 0 104 -22t99 -22q17 0 42.5 9.5t42.5 18.5z" />
    <glyph glyph-name="exclamdown" unicode="&#xa1;" horiz-adv-x="264" 
d="M204 500v-161h-144v161h144zM191 250l13 -430h-145l14 430h118z" />
    <glyph glyph-name="cent" unicode="&#xa2;" 
d="M270 -75v104q-182 13 -182 221q0 205 182 220v101h110v-105l79 -13l-4 -100q-79 3 -117 3q-63 0 -88.5 -24.5t-25.5 -81.5t26 -82t89 -25l116 4l4 -100q-39 -10 -79 -13v-109h-110z" />
    <glyph glyph-name="sterling" unicode="&#xa3;" 
d="M468 647l-4 -104q-68 8 -131 8q-52 0 -52 -65v-53h153v-114h-153v-205h124l69 16l21 -112l-81 -18h-339v114h74v205h-64v114h64v59q0 104 40 141.5t126 37.5q33 0 71.5 -6t59.5 -12z" />
    <glyph glyph-name="currency" unicode="&#xa4;" 
d="M438 2l-73 73q-40 -20 -85 -20t-85 20l-73 -73l-92 92l72 72q-19 41 -19 86q0 44 19 85l-72 73l92 92l72 -73q40 20 86 20q45 0 85 -20l73 73l92 -92l-73 -73q20 -40 20 -85q0 -46 -20 -86l73 -72zM280 166q35 0 60.5 25.5t25.5 60.5t-25.5 60.5t-60.5 25.5t-60.5 -25.5
t-25.5 -60.5t25.5 -60.5t60.5 -25.5z" />
    <glyph glyph-name="yen" unicode="&#xa5;" 
d="M58 291v112h92l-145 257h153l123 -211l122 211h153l-143 -257h89v-112h-151v-45h151v-112h-151v-134h-138v134h-155v112h155v45h-155z" />
    <glyph glyph-name="brokenbar" unicode="&#xa6;" horiz-adv-x="272" 
d="M69 700h134v-372h-134v372zM69 170h134v-380h-134v380z" />
    <glyph glyph-name="section" unicode="&#xa7;" horiz-adv-x="517" 
d="M450 614l-6 -108q-113 16 -161 16q-58 0 -77 -14t-19 -51q0 -22 27 -33.5t109 -31.5q90 -22 121 -51t31 -100q0 -68 -50 -139q20 -19 29 -41t9 -68q0 -97 -51.5 -140t-165.5 -43q-31 0 -77.5 6t-77.5 12l-31 5l13 108q108 -15 163 -15q52 0 75.5 13.5t23.5 43.5
q0 27 -25 39t-117 35q-88 22 -122 53.5t-34 102.5q0 35 20 74.5t44 59.5q-44 32 -44 108q0 183 217 183q32 0 76 -6t72 -12zM258 285l-33 8t-36 9q-17 -26 -17 -64q0 -29 11.5 -40t48.5 -21q42 -12 89 -28q18 23 18 73q0 25 -16 37.5t-65 25.5z" />
    <glyph glyph-name="dieresis" unicode="&#xa8;" horiz-adv-x="268" 
d="M-30 596v132h128v-132h-128zM186 596v132h128v-132h-128z" />
    <glyph glyph-name="copyright" unicode="&#xa9;" horiz-adv-x="643" 
d="M46 434q0 123 78 203.5t198 80.5q123 0 199 -82.5t76 -201.5q0 -123 -76 -203.5t-201 -80.5q-117 0 -195.5 82t-78.5 202zM108 434q0 -93 61 -158.5t151 -65.5q93 0 154 65t61 159q0 92 -61.5 158t-152.5 66q-90 0 -151.5 -65.5t-61.5 -158.5zM407 369l7 -82
q-28 -18 -84 -18q-69 0 -98.5 36t-29.5 134q0 89 30.5 124t101.5 35q21 0 41 -4t29 -8l10 -3l-7 -86q-35 6 -67 6q-20 0 -27.5 -14t-7.5 -50q0 -75 35 -75z" />
    <glyph glyph-name="ordfeminine" unicode="&#xaa;" horiz-adv-x="416" 
d="M351 544v-141q8 -6 18 -8l-2 -82q-68 0 -91.5 7.5t-35.5 25.5q-42 -32 -89 -32q-53 0 -81 29.5t-28 80.5q0 95 127 101l67 3v22q0 15 -44 15l-131 -7l-3 75q70 26 141 26q77 0 114.5 -24.5t37.5 -90.5zM236 458l-47 -3q-32 -3 -32 -27q0 -26 31 -26q9 0 21 4t19 8l8 4v40
z" />
    <glyph glyph-name="guillemotleft" unicode="&#xab;" horiz-adv-x="601" 
d="M263 319l-109 -75l109 -86v-135l-223 171v96l223 164v-135zM546 319l-109 -75l109 -86v-135l-223 171v96l223 164v-135z" />
    <glyph glyph-name="logicalnot" unicode="&#xac;" 
d="M57 358h436v-254h-120v134h-316v120z" />
    <glyph glyph-name="registered" unicode="&#xae;" horiz-adv-x="643" 
d="M46 434q0 123 78 203.5t197 80.5q123 0 199.5 -82.5t76.5 -201.5q0 -123 -75.5 -203.5t-200.5 -80.5q-118 0 -196.5 81.5t-78.5 202.5zM108 434q0 -92 62 -158t151 -66q92 0 153 65.5t61 158.5q0 92 -61.5 158t-152.5 66q-90 0 -151.5 -66t-61.5 -158zM354 276l-28 93
h-29v-93h-96v315h136q52 0 83 -25.5t31 -79.5q0 -39 -8 -60.5t-30 -39.5l41 -110h-100zM296 519v-79h28q34 0 34 39q0 40 -35 40h-27z" />
    <glyph glyph-name="macron" unicode="&#xaf;" horiz-adv-x="268" 
d="M-5 597v100h287v-100h-287z" />
    <glyph glyph-name="degree" unicode="&#xb0;" 
d="M130 542q0 67 41.5 108.5t108.5 41.5t108.5 -41.5t41.5 -108.5t-41.5 -108t-108.5 -41t-108.5 41t-41.5 108zM205 542q0 -34 20.5 -55t54.5 -21t55.5 21t21.5 55t-21.5 55.5t-55.5 21.5t-54.5 -21.5t-20.5 -55.5z" />
    <glyph glyph-name="plusminus" unicode="&#xb1;" 
d="M50 270v120h169v108h120v-108h171v-120h-171v-100h-120v100h-169zM50 139h460v-120h-460v120z" />
    <glyph glyph-name="twosuperior" unicode="&#xb2;" horiz-adv-x="280" 
d="M252 478h-231v90l73 59q46 37 46 57q0 15 -37 15l-76 -6l-4 99q73 9 118 9q61 0 86 -23t25 -77q0 -33 -13 -55.5t-43 -44.5l-38 -28h94v-95z" />
    <glyph glyph-name="threesuperior" unicode="&#xb3;" horiz-adv-x="280" 
d="M24 792q68 9 108 9q121 0 121 -89q0 -53 -29 -70q35 -15 35 -73q0 -51 -31 -76.5t-87 -25.5l-121 8l6 93q61 -6 94 -6q29 0 29 16q0 14 -26 14h-66v85h64q20 0 20 14q0 15 -27 15l-84 -5z" />
    <glyph glyph-name="acute" unicode="&#xb4;" horiz-adv-x="268" 
d="M5 651l252 102l40 -115l-262 -74z" />
    <glyph glyph-name="mu" unicode="&#xb5;" 
d="M363 500h134v-500h-133v28q-72 -40 -125 -40q-23 0 -42 3v-201h-134v710h134v-289q1 -58 14 -80.5t56 -22.5q22 0 46 4.5t37 9.5l13 4v374z" />
    <glyph glyph-name="paragraph" unicode="&#xb6;" horiz-adv-x="599" 
d="M397 0v566h-62v-566h-114v286h-7q-84 0 -135 54.5t-51 141.5t52 142.5t136 55.5h331v-114h-36v-566h-114z" />
    <glyph glyph-name="periodcentered" unicode="&#xb7;" horiz-adv-x="256" 
d="M56 167v166h144v-166h-144z" />
    <glyph glyph-name="cedilla" unicode="&#xb8;" horiz-adv-x="264" 
d="M234 -127q0 -57 -29 -85.5t-82 -28.5q-19 0 -42.5 2.5t-36.5 5.5l-14 3l4 78q31 -1 48 -1q38 0 38 26q0 22 -38 22h-24v106h53v-38q64 -1 93.5 -19t29.5 -71z" />
    <glyph glyph-name="onesuperior" unicode="&#xb9;" horiz-adv-x="280" 
d="M10 715l106 75h96v-312h-106v195l-47 -32z" />
    <glyph glyph-name="ordmasculine" unicode="&#xba;" horiz-adv-x="420" 
d="M211 659q169 0 169 -170q0 -175 -169 -175q-171 0 -171 175q0 170 171 170zM211 419q29 0 38.5 16t9.5 53t-9.5 52t-38.5 15t-40 -15.5t-11 -51.5t11 -52.5t40 -16.5z" />
    <glyph glyph-name="guillemotright" unicode="&#xbb;" horiz-adv-x="603" 
d="M447 244l-109 75v135l223 -164v-96l-223 -171v135zM164 244l-109 75v135l223 -164v-96l-223 -171v135z" />
    <glyph glyph-name="onequarter" unicode="&#xbc;" horiz-adv-x="548" 
d="M18 715l106 75h96v-312h-106v195l-47 -32zM29 29l393 632l53 -35l-393 -633zM409 -100v35h-132v88l39 189h118l-52 -182h27l14 90h91v-90h11v-95h-11v-35h-105z" />
    <glyph glyph-name="onehalf" unicode="&#xbd;" horiz-adv-x="542" 
d="M18 715l106 75h96v-312h-106v195l-47 -32zM29 29l393 632l53 -35l-393 -633zM512 -100h-231v90l73 59q46 37 46 57q0 15 -37 15l-76 -6l-4 99q73 9 118 9q61 0 86 -23t25 -77q0 -33 -13 -55.5t-43 -44.5l-38 -28h94v-95z" />
    <glyph glyph-name="threequarters" unicode="&#xbe;" horiz-adv-x="561" 
d="M40 792q68 9 108 9q121 0 121 -89q0 -53 -29 -70q35 -15 35 -73q0 -51 -31 -76.5t-87 -25.5l-121 8l6 93q61 -6 94 -6q29 0 29 16q0 14 -26 14h-66v85h64q20 0 20 14q0 15 -27 15l-84 -5zM43 29l393 632l53 -35l-393 -633zM423 -100v35h-132v88l39 189h118l-52 -182h27
l14 90h91v-90h11v-95h-11v-35h-105z" />
    <glyph glyph-name="questiondown" unicode="&#xbf;" horiz-adv-x="433" 
d="M29 -28q0 70 15.5 105.5t66.5 73.5q49 37 62 57t13 44v31h107q31 -34 31 -91q0 -36 -72 -94q-55 -44 -69.5 -63.5t-14.5 -47.5q0 -59 85 -59q30 0 66 4t57 8l21 4l7 -101q-86 -35 -170 -35q-108 0 -156.5 39t-48.5 125zM315 500v-161h-144v161h144z" />
    <glyph glyph-name="Agrave" unicode="&#xc0;" horiz-adv-x="602" 
d="M17 0l153 680h262l153 -680h-138l-27 123h-238l-27 -123h-138zM277 566l-69 -323h186l-69 323h-48zM183 945l252 -106l-33 -93l-260 79z" />
    <glyph glyph-name="Aacute" unicode="&#xc1;" horiz-adv-x="602" 
d="M17 0l153 680h262l153 -680h-138l-27 123h-238l-27 -123h-138zM277 566l-69 -323h186l-69 323h-48zM162 839l252 106l41 -120l-260 -79z" />
    <glyph glyph-name="Acircumflex" unicode="&#xc2;" horiz-adv-x="602" 
d="M17 0l153 680h262l153 -680h-138l-27 123h-238l-27 -123h-138zM277 566l-69 -323h186l-69 323h-48zM107 765l134 149h117l134 -149h-142l-49 56l-52 -56h-142z" />
    <glyph glyph-name="Atilde" unicode="&#xc3;" horiz-adv-x="602" 
d="M17 0l153 680h262l153 -680h-138l-27 123h-238l-27 -123h-138zM277 566l-69 -323h186l-69 323h-48zM457 918l29 -97q-6 -7 -16.5 -17.5t-38.5 -28t-52 -17.5q-28 0 -91.5 23t-77.5 23q-12 0 -32 -10.5t-34 -21.5l-14 -10l-29 96q6 7 16.5 17.5t38.5 28.5t52 18
q35 0 96 -23t71 -23q12 0 32.5 10.5t34.5 21.5z" />
    <glyph glyph-name="Adieresis" unicode="&#xc4;" horiz-adv-x="602" 
d="M17 0l153 680h262l153 -680h-138l-27 123h-238l-27 -123h-138zM277 566l-69 -323h186l-69 323h-48zM129 764v132h128v-132h-128zM343 764v132h128v-132h-128z" />
    <glyph glyph-name="Aring" unicode="&#xc5;" horiz-adv-x="602" 
d="M451 721q0 -31 -15 -59l149 -662h-138l-27 123h-238l-27 -123h-138l149 662q-15 25 -15 59q0 59 43 92.5t107 33.5t107 -33.5t43 -92.5zM277 566l-69 -323h186l-69 323h-48zM242 721q0 -18 14 -29t39 -12h6q27 0 43 11t16 30t-16 30t-43 11t-43 -11t-16 -30z" />
    <glyph glyph-name="AE" unicode="&#xc6;" horiz-adv-x="871" 
d="M392 0v116h-213l-29 -116h-138l184 690h634v-132h-302v-143h242v-131h-242v-152h302v-132h-438zM293 558l-80 -309h179l1 309h-100z" />
    <glyph glyph-name="Ccedilla" unicode="&#xc7;" horiz-adv-x="543" 
d="M438 -127q0 -57 -29 -85.5t-82 -28.5q-19 0 -42.5 2.5t-36.5 5.5l-14 3l4 78q31 -1 48 -1q38 0 38 26q0 22 -38 22h-24v95q-124 11 -169.5 93.5t-45.5 256.5q0 197 55.5 274.5t204.5 77.5q86 0 199 -27l-4 -110q-99 15 -175 15q-55 0 -83 -17.5t-41.5 -66.5t-13.5 -146
q0 -139 27.5 -184.5t114.5 -45.5q78 0 171 14l3 -113q-94 -21 -190 -23v-25q64 -1 93.5 -19t29.5 -71z" />
    <glyph glyph-name="Egrave" unicode="&#xc8;" horiz-adv-x="554" 
d="M74 0v680h440v-120h-302v-159h242v-118h-242v-163h302v-120h-440zM180 945l252 -106l-33 -93l-260 79z" />
    <glyph glyph-name="Eacute" unicode="&#xc9;" horiz-adv-x="554" 
d="M74 0v680h440v-120h-302v-159h242v-118h-242v-163h302v-120h-440zM154 839l252 106l41 -120l-260 -79z" />
    <glyph glyph-name="Ecircumflex" unicode="&#xca;" horiz-adv-x="554" 
d="M74 0v680h440v-120h-302v-159h242v-118h-242v-163h302v-120h-440zM105 765l134 149h117l134 -149h-142l-49 56l-52 -56h-142z" />
    <glyph glyph-name="Edieresis" unicode="&#xcb;" horiz-adv-x="554" 
d="M74 0v680h440v-120h-302v-159h242v-118h-242v-163h302v-120h-440zM123 764v132h128v-132h-128zM337 764v132h128v-132h-128z" />
    <glyph glyph-name="Igrave" unicode="&#xcc;" horiz-adv-x="286" 
d="M74 0v680h138v-680h-138zM17 945l252 -106l-33 -93l-260 79z" />
    <glyph glyph-name="Iacute" unicode="&#xcd;" horiz-adv-x="286" 
d="M74 0v680h138v-680h-138zM7 839l252 106l41 -120l-260 -79z" />
    <glyph glyph-name="Icircumflex" unicode="&#xce;" horiz-adv-x="286" 
d="M74 0v680h138v-680h-138zM-50 765l134 149h117l134 -149h-142l-49 56l-52 -56h-142z" />
    <glyph glyph-name="Idieresis" unicode="&#xcf;" horiz-adv-x="286" 
d="M74 0v680h138v-680h-138zM-28 764v132h128v-132h-128zM186 764v132h128v-132h-128z" />
    <glyph glyph-name="Eth" unicode="&#xd0;" horiz-adv-x="642" 
d="M25 277v132h54v281h227q88 0 145 -19t88.5 -62.5t43.5 -102t12 -148.5q0 -95 -11 -156t-41.5 -109.5t-88.5 -70.5t-148 -22h-227v277h-54zM453 358q0 39 -1.5 64t-6.5 50t-15 39.5t-26.5 26t-40.5 16.5t-57 5h-91v-150h130v-132h-130v-146h91q39 0 66.5 10.5t43 27.5
t24 48t11 62t2.5 79z" />
    <glyph glyph-name="Ntilde" unicode="&#xd1;" horiz-adv-x="693" 
d="M74 0v680h233l164 -560h10v560h138v-680h-227l-170 560h-10v-560h-138zM505 918l29 -97q-6 -7 -16.5 -17.5t-38.5 -28t-52 -17.5q-28 0 -91.5 23t-77.5 23q-12 0 -32 -10.5t-34 -21.5l-14 -10l-29 96q6 7 16.5 17.5t38.5 28.5t52 18q35 0 96 -23t71 -23q12 0 32.5 10.5
t34.5 21.5z" />
    <glyph glyph-name="Ograve" unicode="&#xd2;" horiz-adv-x="652" 
d="M326 108q81 0 110.5 52.5t29.5 175.5q0 124 -30 180t-110 56t-110 -56t-30 -180q0 -123 29.5 -175.5t110.5 -52.5zM326 -12q-155 0 -218.5 84.5t-63.5 263.5q0 181 63.5 268.5t218.5 87.5t218.5 -87.5t63.5 -268.5q0 -179 -63.5 -263.5t-218.5 -84.5zM204 945l252 -106
l-33 -93l-260 79z" />
    <glyph glyph-name="Oacute" unicode="&#xd3;" horiz-adv-x="652" 
d="M326 108q81 0 110.5 52.5t29.5 175.5q0 124 -30 180t-110 56t-110 -56t-30 -180q0 -123 29.5 -175.5t110.5 -52.5zM326 -12q-155 0 -218.5 84.5t-63.5 263.5q0 181 63.5 268.5t218.5 87.5t218.5 -87.5t63.5 -268.5q0 -179 -63.5 -263.5t-218.5 -84.5zM167 839l252 106
l41 -120l-260 -79z" />
    <glyph glyph-name="Ocircumflex" unicode="&#xd4;" horiz-adv-x="652" 
d="M326 108q81 0 110.5 52.5t29.5 175.5q0 124 -30 180t-110 56t-110 -56t-30 -180q0 -123 29.5 -175.5t110.5 -52.5zM326 -12q-155 0 -218.5 84.5t-63.5 263.5q0 181 63.5 268.5t218.5 87.5t218.5 -87.5t63.5 -268.5q0 -179 -63.5 -263.5t-218.5 -84.5zM135 765l134 149
h117l134 -149h-142l-49 56l-52 -56h-142z" />
    <glyph glyph-name="Otilde" unicode="&#xd5;" horiz-adv-x="652" 
d="M326 108q81 0 110.5 52.5t29.5 175.5q0 124 -30 180t-110 56t-110 -56t-30 -180q0 -123 29.5 -175.5t110.5 -52.5zM326 -12q-155 0 -218.5 84.5t-63.5 263.5q0 181 63.5 268.5t218.5 87.5t218.5 -87.5t63.5 -268.5q0 -179 -63.5 -263.5t-218.5 -84.5zM489 918l29 -97
q-6 -7 -16.5 -17.5t-38.5 -28t-52 -17.5q-28 0 -91.5 23t-77.5 23q-12 0 -32 -10.5t-34 -21.5l-14 -10l-29 96q6 7 16.5 17.5t38.5 28.5t52 18q35 0 96 -23t71 -23q12 0 32.5 10.5t34.5 21.5z" />
    <glyph glyph-name="Odieresis" unicode="&#xd6;" horiz-adv-x="652" 
d="M326 108q81 0 110.5 52.5t29.5 175.5q0 124 -30 180t-110 56t-110 -56t-30 -180q0 -123 29.5 -175.5t110.5 -52.5zM326 -12q-155 0 -218.5 84.5t-63.5 263.5q0 181 63.5 268.5t218.5 87.5t218.5 -87.5t63.5 -268.5q0 -179 -63.5 -263.5t-218.5 -84.5zM155 764v132h128
v-132h-128zM369 764v132h128v-132h-128z" />
    <glyph glyph-name="multiply" unicode="&#xd7;" 
d="M142 473l138 -141l140 143l84 -85l-143 -140l143 -139l-85 -85l-139 142l-139 -141l-85 84l142 139l-141 138z" />
    <glyph glyph-name="Oslash" unicode="&#xd8;" horiz-adv-x="652" 
d="M326 -12q-49 0 -96 10l-58 -125l-98 49l58 124q-88 78 -88 290q0 181 63.5 268.5t218.5 87.5q58 0 101 -12l61 130l100 -43l-65 -140q85 -82 85 -291q0 -179 -63.5 -263.5t-218.5 -84.5zM186 336q0 -93 15 -142l173 371q-24 7 -48 7q-80 0 -110 -56t-30 -180zM326 108
q81 0 110.5 52.5t29.5 175.5q0 89 -14 139l-169 -363q17 -4 43 -4z" />
    <glyph glyph-name="Ugrave" unicode="&#xd9;" horiz-adv-x="654" 
d="M206 227q0 -119 121 -119t121 119v453h138v-450q0 -125 -64.5 -183.5t-194.5 -58.5t-194.5 58.5t-64.5 183.5v450h138v-453zM216 945l252 -106l-33 -93l-260 79z" />
    <glyph glyph-name="Uacute" unicode="&#xda;" horiz-adv-x="654" 
d="M206 227q0 -119 121 -119t121 119v453h138v-450q0 -125 -64.5 -183.5t-194.5 -58.5t-194.5 58.5t-64.5 183.5v450h138v-453zM175 839l252 106l41 -120l-260 -79z" />
    <glyph glyph-name="Ucircumflex" unicode="&#xdb;" horiz-adv-x="654" 
d="M206 227q0 -119 121 -119t121 119v453h138v-450q0 -125 -64.5 -183.5t-194.5 -58.5t-194.5 58.5t-64.5 183.5v450h138v-453zM135 765l134 149h117l134 -149h-142l-49 56l-52 -56h-142z" />
    <glyph glyph-name="Udieresis" unicode="&#xdc;" horiz-adv-x="654" 
d="M206 227q0 -119 121 -119t121 119v453h138v-450q0 -125 -64.5 -183.5t-194.5 -58.5t-194.5 58.5t-64.5 183.5v450h138v-453zM156 764v132h128v-132h-128zM370 764v132h128v-132h-128z" />
    <glyph glyph-name="Yacute" unicode="&#xdd;" horiz-adv-x="557" 
d="M348 275v-275h-138v275l-210 405h153l125 -271l125 271h153zM133 839l252 106l41 -120l-260 -79z" />
    <glyph glyph-name="Thorn" unicode="&#xde;" horiz-adv-x="596" 
d="M323 233q51 0 78 31.5t27 88.5q0 107 -105 107h-111v-227h111zM324 99h-112v-99h-138v690h138v-98h112q244 0 244 -239q0 -121 -62.5 -187.5t-181.5 -66.5z" />
    <glyph glyph-name="germandbls" unicode="&#xdf;" horiz-adv-x="611" 
d="M196 0h-134v522q0 102 53.5 146t177.5 44q116 0 173 -37t57 -120q0 -54 -21.5 -79t-72.5 -48q-37 -16 -48 -25t-11 -22q0 -15 16 -27t78 -40q71 -33 97.5 -62.5t26.5 -87.5q0 -101 -45.5 -138.5t-156.5 -37.5q-29 0 -67.5 6t-62.5 12l-24 5l4 107q97 -12 134 -12
q80 0 80 38q0 23 -15 35t-76 38q-71 30 -99 63.5t-28 87.5q0 48 18 76t59 45q47 19 61.5 30t14.5 26q0 27 -20 38t-72 11q-55 0 -76 -17.5t-21 -57.5v-519z" />
    <glyph glyph-name="agrave" unicode="&#xe0;" horiz-adv-x="511" 
d="M445 344v-208q2 -24 8 -33.5t25 -13.5l-4 -101q-51 0 -81.5 7t-61.5 28q-72 -35 -147 -35q-155 0 -155 164q0 80 43 113.5t132 39.5l107 8v31q0 31 -14 42.5t-45 11.5l-188 -8l-4 93q107 29 203 29q97 0 139.5 -40t42.5 -128zM311 220l-91 -8q-56 -5 -56 -56
q0 -59 49 -59q19 0 43.5 4t39.5 8l15 4v107zM143 753l252 -102l-30 -87l-262 74z" />
    <glyph glyph-name="aacute" unicode="&#xe1;" horiz-adv-x="511" 
d="M445 344v-208q2 -24 8 -33.5t25 -13.5l-4 -101q-51 0 -81.5 7t-61.5 28q-72 -35 -147 -35q-155 0 -155 164q0 80 43 113.5t132 39.5l107 8v31q0 31 -14 42.5t-45 11.5l-188 -8l-4 93q107 29 203 29q97 0 139.5 -40t42.5 -128zM311 220l-91 -8q-56 -5 -56 -56
q0 -59 49 -59q19 0 43.5 4t39.5 8l15 4v107zM96 651l252 102l40 -115l-262 -74z" />
    <glyph glyph-name="acircumflex" unicode="&#xe2;" horiz-adv-x="511" 
d="M445 344v-208q2 -24 8 -33.5t25 -13.5l-4 -101q-51 0 -81.5 7t-61.5 28q-72 -35 -147 -35q-155 0 -155 164q0 80 43 113.5t132 39.5l107 8v31q0 31 -14 42.5t-45 11.5l-188 -8l-4 93q107 29 203 29q97 0 139.5 -40t42.5 -128zM311 220l-91 -8q-56 -5 -56 -56
q0 -59 49 -59q19 0 43.5 4t39.5 8l15 4v107zM83 580l126 151h84l128 -151h-123l-46 67l-46 -67h-123z" />
    <glyph glyph-name="atilde" unicode="&#xe3;" horiz-adv-x="511" 
d="M445 344v-208q2 -24 8 -33.5t25 -13.5l-4 -101q-51 0 -81.5 7t-61.5 28q-72 -35 -147 -35q-155 0 -155 164q0 80 43 113.5t132 39.5l107 8v31q0 31 -14 42.5t-45 11.5l-188 -8l-4 93q107 29 203 29q97 0 139.5 -40t42.5 -128zM311 220l-91 -8q-56 -5 -56 -56
q0 -59 49 -59q19 0 43.5 4t39.5 8l15 4v107zM365 723l29 -76q-6 -7 -16 -17.5t-38 -27.5t-51 -17q-22 0 -68 18t-61 18q-12 0 -31.5 -7.5t-32.5 -15.5l-13 -8l-29 75q6 7 16 17t37.5 26.5t50.5 16.5q22 0 68.5 -18t58.5 -18t32 8.5t34 16.5z" />
    <glyph glyph-name="adieresis" unicode="&#xe4;" horiz-adv-x="511" 
d="M445 344v-208q2 -24 8 -33.5t25 -13.5l-4 -101q-51 0 -81.5 7t-61.5 28q-72 -35 -147 -35q-155 0 -155 164q0 80 43 113.5t132 39.5l107 8v31q0 31 -14 42.5t-45 11.5l-188 -8l-4 93q107 29 203 29q97 0 139.5 -40t42.5 -128zM311 220l-91 -8q-56 -5 -56 -56
q0 -59 49 -59q19 0 43.5 4t39.5 8l15 4v107zM65 596v132h128v-132h-128zM281 596v132h128v-132h-128z" />
    <glyph glyph-name="aring" unicode="&#xe5;" horiz-adv-x="511" 
d="M445 344v-208q2 -24 8 -33.5t25 -13.5l-4 -101q-51 0 -81.5 7t-61.5 28q-72 -35 -147 -35q-155 0 -155 164q0 80 43 113.5t132 39.5l107 8v31q0 31 -14 42.5t-45 11.5l-188 -8l-4 93q107 29 203 29q97 0 139.5 -40t42.5 -128zM311 220l-91 -8q-56 -5 -56 -56
q0 -59 49 -59q19 0 43.5 4t39.5 8l15 4v107zM148 638q0 49 33.5 83t83.5 34q49 0 83 -34t34 -83q0 -50 -34 -83.5t-83 -33.5q-50 0 -83.5 33.5t-33.5 83.5zM220 638q0 -20 13 -33t33 -13t32.5 13t12.5 33t-12.5 32.5t-32.5 12.5t-33 -12.5t-13 -32.5z" />
    <glyph glyph-name="ae" unicode="&#xe6;" horiz-adv-x="784" 
d="M546 111q36 0 82.5 2.5t74.5 4.5l28 2l2 -104q-115 -28 -208 -28q-102 0 -153 48l-23 -11q-84 -37 -171 -37q-73 0 -111 43.5t-38 120.5q0 80 43.5 114.5t130.5 39.5l108 7v25q0 20 -14 32.5t-36 12.5q-33 0 -81.5 -2.5t-80.5 -5.5l-32 -3l-4 117q133 22 206 22
q86 0 129 -37q52 37 133 37q218 0 218 -225l-10 -94h-294q1 -43 24 -62t77 -19zM205 103q18 0 44.5 3.5t44.5 7.5l17 4q0 16 -0.5 47t-0.5 46l-90 -4q-56 -3 -56 -51q0 -53 41 -53zM445 295h172q0 53 -19.5 75t-66.5 22q-48 0 -67 -23t-19 -74z" />
    <glyph glyph-name="ccedilla" unicode="&#xe7;" horiz-adv-x="446" 
d="M378 -127q0 -57 -29 -85.5t-82 -28.5q-19 0 -42.5 2.5t-36.5 5.5l-14 3l4 78q31 -1 48 -1q38 0 38 26q0 22 -38 22h-24v96q-87 11 -125.5 74t-38.5 190q0 134 50 195.5t161 61.5q26 0 66 -5.5t67 -10.5l27 -6l-4 -106q-79 8 -117 8q-69 0 -91.5 -29.5t-22.5 -107.5
q0 -86 22.5 -116.5t92.5 -30.5l116 8l4 -107q-97 -19 -154 -21v-25q64 -1 93.5 -19t29.5 -71z" />
    <glyph glyph-name="egrave" unicode="&#xe8;" horiz-adv-x="510" 
d="M273 106q36 0 82.5 2t74.5 4l28 3l2 -99q-115 -28 -208 -28q-113 0 -164 60t-51 195q0 269 221 269q218 0 218 -226l-10 -93h-294q1 -46 24.5 -66.5t76.5 -20.5zM171 295h173q0 60 -19 83.5t-67 23.5q-47 0 -66.5 -24.5t-20.5 -82.5zM150 753l252 -102l-30 -87l-262 74z
" />
    <glyph glyph-name="eacute" unicode="&#xe9;" horiz-adv-x="510" 
d="M273 106q36 0 82.5 2t74.5 4l28 3l2 -99q-115 -28 -208 -28q-113 0 -164 60t-51 195q0 269 221 269q218 0 218 -226l-10 -93h-294q1 -46 24.5 -66.5t76.5 -20.5zM171 295h173q0 60 -19 83.5t-67 23.5q-47 0 -66.5 -24.5t-20.5 -82.5zM105 651l252 102l40 -115l-262 -74z
" />
    <glyph glyph-name="ecircumflex" unicode="&#xea;" horiz-adv-x="510" 
d="M273 106q36 0 82.5 2t74.5 4l28 3l2 -99q-115 -28 -208 -28q-113 0 -164 60t-51 195q0 269 221 269q218 0 218 -226l-10 -93h-294q1 -46 24.5 -66.5t76.5 -20.5zM171 295h173q0 60 -19 83.5t-67 23.5q-47 0 -66.5 -24.5t-20.5 -82.5zM89 580l126 151h84l128 -151h-123
l-46 67l-46 -67h-123z" />
    <glyph glyph-name="edieresis" unicode="&#xeb;" horiz-adv-x="510" 
d="M273 106q36 0 82.5 2t74.5 4l28 3l2 -99q-115 -28 -208 -28q-113 0 -164 60t-51 195q0 269 221 269q218 0 218 -226l-10 -93h-294q1 -46 24.5 -66.5t76.5 -20.5zM171 295h173q0 60 -19 83.5t-67 23.5q-47 0 -66.5 -24.5t-20.5 -82.5zM84 596v132h128v-132h-128zM300 596
v132h128v-132h-128z" />
    <glyph glyph-name="igrave" unicode="&#xec;" horiz-adv-x="258" 
d="M62 0v500h134v-500h-134zM-19 753l252 -102l-30 -87l-262 74z" />
    <glyph glyph-name="iacute" unicode="&#xed;" horiz-adv-x="258" 
d="M31 651l252 102l40 -115l-262 -74zM62 0v500h134v-500h-134z" />
    <glyph glyph-name="icircumflex" unicode="&#xee;" horiz-adv-x="258" 
d="M62 0v500h134v-500h-134zM-45 580l126 151h84l128 -151h-123l-46 67l-46 -67h-123z" />
    <glyph glyph-name="idieresis" unicode="&#xef;" horiz-adv-x="258" 
d="M62 0v500h134v-500h-134zM-48 596v132h128v-132h-128zM168 596v132h128v-132h-128z" />
    <glyph glyph-name="eth" unicode="&#xf0;" horiz-adv-x="567" 
d="M168 467l-54 76l76 51q-46 12 -108 24l18 94q121 -9 209 -39l96 64l54 -76l-54 -36q123 -88 123 -278q0 -183 -60 -269.5t-195 -86.5q-235 0 -235 225q0 104 54.5 163t163.5 59q31 0 63.5 -6t49.5 -12l17 -6q-5 47 -25 80.5t-64 58.5zM264 320q-41 0 -62.5 -30.5
t-21.5 -73.5q0 -105 93 -105q56 0 84.5 44t28.5 143q-50 22 -122 22z" />
    <glyph glyph-name="ntilde" unicode="&#xf1;" horiz-adv-x="553" 
d="M196 0h-134v500h133v-28q68 40 125 40q100 0 138 -59t38 -182v-271h-134v267q0 64 -15 94.5t-60 30.5q-21 0 -43.5 -4.5t-35.5 -9.5l-12 -4v-374zM422 723l29 -76q-6 -7 -16 -17.5t-38 -27.5t-51 -17q-22 0 -68 18t-61 18q-12 0 -31.5 -7.5t-32.5 -15.5l-13 -8l-29 75
q6 7 16 17t37.5 26.5t50.5 16.5q22 0 68.5 -18t58.5 -18t32 8.5t34 16.5z" />
    <glyph glyph-name="ograve" unicode="&#xf2;" horiz-adv-x="532" 
d="M266 512q124 0 177 -68.5t53 -192.5q0 -263 -230 -263t-230 263q0 124 53 192.5t177 68.5zM266 102q53 0 73.5 36t20.5 113t-20.5 112t-73.5 35t-73.5 -35t-20.5 -112t20.5 -113t73.5 -36zM163 753l252 -102l-30 -87l-262 74z" />
    <glyph glyph-name="oacute" unicode="&#xf3;" horiz-adv-x="532" 
d="M266 512q124 0 177 -68.5t53 -192.5q0 -263 -230 -263t-230 263q0 124 53 192.5t177 68.5zM266 102q53 0 73.5 36t20.5 113t-20.5 112t-73.5 35t-73.5 -35t-20.5 -112t20.5 -113t73.5 -36zM116 651l252 102l40 -115l-262 -74z" />
    <glyph glyph-name="ocircumflex" unicode="&#xf4;" horiz-adv-x="532" 
d="M266 512q124 0 177 -68.5t53 -192.5q0 -263 -230 -263t-230 263q0 124 53 192.5t177 68.5zM266 102q53 0 73.5 36t20.5 113t-20.5 112t-73.5 35t-73.5 -35t-20.5 -112t20.5 -113t73.5 -36zM91 580l126 151h84l128 -151h-123l-46 67l-46 -67h-123z" />
    <glyph glyph-name="otilde" unicode="&#xf5;" horiz-adv-x="532" 
d="M266 512q124 0 177 -68.5t53 -192.5q0 -263 -230 -263t-230 263q0 124 53 192.5t177 68.5zM266 102q53 0 73.5 36t20.5 113t-20.5 112t-73.5 35t-73.5 -35t-20.5 -112t20.5 -113t73.5 -36zM402 723l29 -76q-6 -7 -16 -17.5t-38 -27.5t-51 -17q-22 0 -68 18t-61 18
q-12 0 -31.5 -7.5t-32.5 -15.5l-13 -8l-29 75q6 7 16 17t37.5 26.5t50.5 16.5q22 0 68.5 -18t58.5 -18t32 8.5t34 16.5z" />
    <glyph glyph-name="odieresis" unicode="&#xf6;" horiz-adv-x="532" 
d="M266 512q124 0 177 -68.5t53 -192.5q0 -263 -230 -263t-230 263q0 124 53 192.5t177 68.5zM266 102q53 0 73.5 36t20.5 113t-20.5 112t-73.5 35t-73.5 -35t-20.5 -112t20.5 -113t73.5 -36zM93 596v132h128v-132h-128zM309 596v132h128v-132h-128z" />
    <glyph glyph-name="divide" unicode="&#xf7;" 
d="M213 352v132h132v-132h-132zM50 191v120h460v-120h-460zM213 17v132h132v-132h-132z" />
    <glyph glyph-name="oslash" unicode="&#xf8;" horiz-adv-x="532" 
d="M266 512q28 0 56 -5l40 100l81 -30l-41 -98q94 -59 94 -228q0 -263 -230 -263q-34 0 -63 6l-41 -102l-80 30l43 103q-89 60 -89 226q0 124 53 192.5t177 68.5zM266 102q53 0 73.5 36t20.5 113q0 65 -14 99l-100 -247q6 -1 20 -1zM266 398q-53 0 -73.5 -35t-20.5 -112
q0 -63 12 -95l95 241q-2 0 -6.5 0.5t-6.5 0.5z" />
    <glyph glyph-name="ugrave" unicode="&#xf9;" horiz-adv-x="553" 
d="M357 500h134v-500h-133v28q-72 -40 -125 -40q-104 0 -140 57.5t-36 192.5v262h134v-264q0 -74 12 -101t58 -27q22 0 46 4.5t37 9.5l13 4v374zM138 753l252 -102l-30 -87l-262 74z" />
    <glyph glyph-name="uacute" unicode="&#xfa;" horiz-adv-x="553" 
d="M357 500h134v-500h-133v28q-72 -40 -125 -40q-104 0 -140 57.5t-36 192.5v262h134v-264q0 -74 12 -101t58 -27q22 0 46 4.5t37 9.5l13 4v374zM130 651l252 102l40 -115l-262 -74z" />
    <glyph glyph-name="ucircumflex" unicode="&#xfb;" horiz-adv-x="553" 
d="M357 500h134v-500h-133v28q-72 -40 -125 -40q-104 0 -140 57.5t-36 192.5v262h134v-264q0 -74 12 -101t58 -27q22 0 46 4.5t37 9.5l13 4v374zM82 580l126 151h84l128 -151h-123l-46 67l-46 -67h-123z" />
    <glyph glyph-name="udieresis" unicode="&#xfc;" horiz-adv-x="553" 
d="M357 500h134v-500h-133v28q-72 -40 -125 -40q-104 0 -140 57.5t-36 192.5v262h134v-264q0 -74 12 -101t58 -27q22 0 46 4.5t37 9.5l13 4v374zM106 596v132h128v-132h-128zM322 596v132h128v-132h-128z" />
    <glyph glyph-name="yacute" unicode="&#xfd;" horiz-adv-x="500" 
d="M16 500h132l91 -386h23l91 386h132l-176 -710h-131l55 210h-94zM122 651l252 102l40 -115l-262 -74z" />
    <glyph glyph-name="thorn" unicode="&#xfe;" horiz-adv-x="544" 
d="M269 104q58 0 79.5 34t21.5 117q0 137 -84 137q-18 0 -40.5 -3t-35.5 -7l-14 -3v-269q45 -6 73 -6zM304 512q105 0 153.5 -57.5t48.5 -199.5q0 -154 -53 -210.5t-174 -56.5q-16 0 -37 2t-34 4l-12 2v-206h-134v910h134v-215q64 27 108 27z" />
    <glyph glyph-name="ydieresis" unicode="&#xff;" horiz-adv-x="500" 
d="M16 500h132l91 -386h23l91 386h132l-176 -710h-131l55 210h-94zM79 596v132h128v-132h-128zM295 596v132h128v-132h-128z" />
    <glyph glyph-name="Amacron" unicode="&#x100;" horiz-adv-x="602" 
d="M17 0l153 680h262l153 -680h-138l-27 123h-238l-27 -123h-138zM277 566l-69 -323h186l-69 323h-48zM124 782v98h347v-98h-347z" />
    <glyph glyph-name="amacron" unicode="&#x101;" horiz-adv-x="511" 
d="M445 344v-208q2 -24 8 -33.5t25 -13.5l-4 -101q-51 0 -81.5 7t-61.5 28q-72 -35 -147 -35q-155 0 -155 164q0 80 43 113.5t132 39.5l107 8v31q0 31 -14 42.5t-45 11.5l-188 -8l-4 93q107 29 203 29q97 0 139.5 -40t42.5 -128zM311 220l-91 -8q-56 -5 -56 -56
q0 -59 49 -59q19 0 43.5 4t39.5 8l15 4v107zM107 597v100h287v-100h-287z" />
    <glyph glyph-name="Abreve" unicode="&#x102;" horiz-adv-x="602" 
d="M17 0l153 680h262l153 -680h-138l-27 123h-238l-27 -123h-138zM277 566l-69 -323h186l-69 323h-48zM111 910h121q4 -25 21 -41t44 -16q28 0 45.5 16t20.5 41h121q-8 -68 -54.5 -109.5t-132.5 -41.5t-132 41.5t-54 109.5z" />
    <glyph glyph-name="abreve" unicode="&#x103;" horiz-adv-x="512" 
d="M445 339v-185q0 -29 6 -38.5t26 -13.5l-4 -114q-60 0 -87 7.5t-55 26.5q-84 -34 -153 -34q-73 0 -111 43.5t-38 120.5q0 80 42.5 114t131.5 40l108 7v25q0 20 -14 32.5t-36 12.5l-194 -8l-4 114q133 22 206 22q88 0 132 -39.5t44 -132.5zM311 211l-91 -4q-56 -3 -56 -51
q0 -53 41 -53q18 0 44.5 3.5t44.5 7.5l17 4v93zM59 748h139q7 -44 55 -44q49 0 55 44h139q-8 -75 -56.5 -119t-137.5 -44t-137.5 44t-56.5 119z" />
    <glyph glyph-name="Aogonek" unicode="&#x104;" horiz-adv-x="602" 
d="M17 0l153 680h262l153 -680h-18q-56 -47 -56 -81q0 -33 32 -33l42 4l12 -95q-59 -11 -102 -11q-48 0 -78.5 26t-30.5 70q0 68 66 120h-5l-27 123h-238l-27 -123h-138zM277 566l-69 -323h186l-69 323h-48z" />
    <glyph glyph-name="aogonek" unicode="&#x105;" horiz-adv-x="510" 
d="M445 344v-208q2 -24 8 -33.5t25 -13.5l-4 -101q-7 0 -20 0.5t-18 0.5q-44 -41 -44 -70q0 -33 32 -33l42 4l12 -95q-59 -11 -102 -11q-48 0 -78.5 26t-30.5 70q0 36 20.5 69t40.5 47l20 15l3 -1l-20 13q-72 -35 -147 -35q-155 0 -155 164q0 80 43 113.5t132 39.5l107 8v31
q0 31 -14 42.5t-45 11.5l-188 -8l-4 93q107 29 203 29q97 0 139.5 -40t42.5 -128zM311 220l-91 -8q-56 -5 -56 -56q0 -59 49 -59q19 0 43.5 4t39.5 8l15 4v107z" />
    <glyph glyph-name="Cacute" unicode="&#x106;" horiz-adv-x="543" 
d="M502 124l3 -113q-106 -23 -198 -23q-78 0 -129 21t-80 67t-40 108t-11 156q0 197 55.5 274.5t204.5 77.5q86 0 199 -27l-4 -110q-99 15 -175 15q-55 0 -83 -17.5t-41.5 -66.5t-13.5 -146q0 -139 27.5 -184.5t114.5 -45.5q78 0 171 14zM147 839l252 106l41 -120l-260 -79z
" />
    <glyph glyph-name="cacute" unicode="&#x107;" horiz-adv-x="446" 
d="M249 512q26 0 66 -5.5t67 -10.5l27 -6l-4 -106q-79 8 -117 8q-69 0 -91.5 -29.5t-22.5 -107.5q0 -86 22.5 -116.5t92.5 -30.5l116 8l4 -107q-107 -21 -163 -21q-111 0 -159.5 62.5t-48.5 204.5q0 134 50 195.5t161 61.5zM97 651l252 102l40 -115l-262 -74z" />
    <glyph glyph-name="Ccircumflex" unicode="&#x108;" horiz-adv-x="543" 
d="M502 124l3 -113q-106 -23 -198 -23q-78 0 -129 21t-80 67t-40 108t-11 156q0 197 55.5 274.5t204.5 77.5q86 0 199 -27l-4 -110q-99 15 -175 15q-55 0 -83 -17.5t-41.5 -66.5t-13.5 -146q0 -139 27.5 -184.5t114.5 -45.5q78 0 171 14zM107 765l134 149h117l134 -149h-142
l-49 56l-52 -56h-142z" />
    <glyph glyph-name="ccircumflex" unicode="&#x109;" horiz-adv-x="446" 
d="M249 512q26 0 66 -5.5t67 -10.5l27 -6l-4 -106q-79 8 -117 8q-69 0 -91.5 -29.5t-22.5 -107.5q0 -86 22.5 -116.5t92.5 -30.5l116 8l4 -107q-107 -21 -163 -21q-111 0 -159.5 62.5t-48.5 204.5q0 134 50 195.5t161 61.5zM54 580l126 151h84l128 -151h-123l-46 67l-46 -67
h-123z" />
    <glyph glyph-name="Cdotaccent" unicode="&#x10a;" horiz-adv-x="543" 
d="M502 124l3 -113q-106 -23 -198 -23q-78 0 -129 21t-80 67t-40 108t-11 156q0 197 55.5 274.5t204.5 77.5q86 0 199 -27l-4 -110q-99 15 -175 15q-55 0 -83 -17.5t-41.5 -66.5t-13.5 -146q0 -139 27.5 -184.5t114.5 -45.5q78 0 171 14zM219 760v135h134v-135h-134z" />
    <glyph glyph-name="cdotaccent" unicode="&#x10b;" horiz-adv-x="446" 
d="M249 512q26 0 66 -5.5t67 -10.5l27 -6l-4 -106q-79 8 -117 8q-69 0 -91.5 -29.5t-22.5 -107.5q0 -86 22.5 -116.5t92.5 -30.5l116 8l4 -107q-107 -21 -163 -21q-111 0 -159.5 62.5t-48.5 204.5q0 134 50 195.5t161 61.5zM189 556v135h134v-135h-134z" />
    <glyph glyph-name="Ccaron" unicode="&#x10c;" horiz-adv-x="543" 
d="M502 124l3 -113q-106 -23 -198 -23q-78 0 -129 21t-80 67t-40 108t-11 156q0 197 55.5 274.5t204.5 77.5q86 0 199 -27l-4 -110q-99 15 -175 15q-55 0 -83 -17.5t-41.5 -66.5t-13.5 -146q0 -139 27.5 -184.5t114.5 -45.5q78 0 171 14zM250 765l-134 149h142l52 -56l49 56
h142l-134 -149h-117z" />
    <glyph glyph-name="ccaron" unicode="&#x10d;" horiz-adv-x="446" 
d="M249 512q26 0 66 -5.5t67 -10.5l27 -6l-4 -106q-79 8 -117 8q-69 0 -91.5 -29.5t-22.5 -107.5q0 -86 22.5 -116.5t92.5 -30.5l116 8l4 -107q-107 -21 -163 -21q-111 0 -159.5 62.5t-48.5 204.5q0 134 50 195.5t161 61.5zM199 580l-126 151h123l46 -67l46 67h123
l-128 -151h-84z" />
    <glyph glyph-name="Dcaron" unicode="&#x10e;" horiz-adv-x="638" 
d="M303 0h-229v680h229q88 0 145 -18.5t88.5 -61t43.5 -100t12 -147.5q0 -94 -11 -154.5t-41.5 -108t-88.5 -69t-148 -21.5zM450 353q0 62 -4 96t-19 62t-44.5 38.5t-79.5 10.5h-91v-440h91q40 0 67 10.5t42.5 27.5t24 48.5t11 63.5t2.5 83zM246 765l-134 149h142l52 -56
l49 56h142l-134 -149h-117z" />
    <glyph glyph-name="dcaron" unicode="&#x10f;" horiz-adv-x="664" 
d="M544 444l46 234h130l-55 -234h-121zM487 700v-700h-133v21q-70 -33 -121 -33q-109 0 -152 63t-43 201q0 135 51.5 197.5t155.5 62.5q16 0 43 -3.5t46 -6.5l19 -4v202h134zM256 108q21 0 45 4t38 8l14 3v263q-55 10 -98 10q-81 0 -81 -144q0 -78 18 -111t64 -33z" />
    <glyph glyph-name="Dcroat" unicode="&#x110;" horiz-adv-x="642" 
d="M25 277v132h54v281h227q88 0 145 -19t88.5 -62.5t43.5 -102t12 -148.5q0 -95 -11 -156t-41.5 -109.5t-88.5 -70.5t-148 -22h-227v277h-54zM453 358q0 39 -1.5 64t-6.5 50t-15 39.5t-26.5 26t-40.5 16.5t-57 5h-91v-150h130v-132h-130v-146h91q39 0 66.5 10.5t43 27.5
t24 48t11 62t2.5 79z" />
    <glyph glyph-name="dcroat" unicode="&#x111;" horiz-adv-x="549" 
d="M129 622v116h327v-38h31v-700h-133v21q-70 -33 -121 -33q-109 0 -152 63t-43 201q0 135 51.5 197.5t155.5 62.5q16 0 43 -3.5t46 -6.5l19 -4v124h-224zM256 108q21 0 45 4t38 8l14 3v263q-55 10 -98 10q-81 0 -81 -144q0 -78 18 -111t64 -33z" />
    <glyph glyph-name="Emacron" unicode="&#x112;" horiz-adv-x="554" 
d="M74 0v680h440v-120h-302v-159h242v-118h-242v-163h302v-120h-440zM116 782v98h347v-98h-347z" />
    <glyph glyph-name="emacron" unicode="&#x113;" horiz-adv-x="510" 
d="M273 106q36 0 82.5 2t74.5 4l28 3l2 -99q-115 -28 -208 -28q-113 0 -164 60t-51 195q0 269 221 269q218 0 218 -226l-10 -93h-294q1 -46 24.5 -66.5t76.5 -20.5zM171 295h173q0 60 -19 83.5t-67 23.5q-47 0 -66.5 -24.5t-20.5 -82.5zM113 597v100h287v-100h-287z" />
    <glyph glyph-name="Ebreve" unicode="&#x114;" horiz-adv-x="554" 
d="M74 0v680h440v-120h-302v-159h242v-118h-242v-163h302v-120h-440zM114 910h121q4 -25 21 -41t44 -16q28 0 45.5 16t20.5 41h121q-8 -68 -54.5 -109.5t-132.5 -41.5t-132 41.5t-54 109.5z" />
    <glyph glyph-name="ebreve" unicode="&#x115;" horiz-adv-x="510" 
d="M273 106q36 0 82.5 2t74.5 4l28 3l2 -99q-115 -28 -208 -28q-113 0 -164 60t-51 195q0 269 221 269q218 0 218 -226l-10 -93h-294q1 -46 24.5 -66.5t76.5 -20.5zM171 295h173q0 60 -19 83.5t-67 23.5q-47 0 -66.5 -24.5t-20.5 -82.5zM94 730h101q4 -31 20.5 -48.5
t42.5 -17.5q56 0 63 66h101q-8 -65 -50.5 -111t-113.5 -46t-113.5 46t-50.5 111z" />
    <glyph glyph-name="Edotaccent" unicode="&#x116;" horiz-adv-x="554" 
d="M74 0v680h440v-120h-302v-159h242v-118h-242v-163h302v-120h-440zM233 767v135h134v-135h-134z" />
    <glyph glyph-name="edotaccent" unicode="&#x117;" horiz-adv-x="510" 
d="M273 106q36 0 82.5 2t74.5 4l28 3l2 -99q-115 -28 -208 -28q-113 0 -164 60t-51 195q0 269 221 269q218 0 218 -226l-10 -93h-294q1 -46 24.5 -66.5t76.5 -20.5zM171 295h173q0 60 -19 83.5t-67 23.5q-47 0 -66.5 -24.5t-20.5 -82.5zM190 556v135h134v-135h-134z" />
    <glyph glyph-name="Eogonek" unicode="&#x118;" horiz-adv-x="554" 
d="M74 0v680h440v-120h-302v-159h242v-118h-242v-163h302v-120h-28q-56 -47 -56 -81q0 -33 32 -33l42 4l12 -95q-59 -11 -102 -11q-48 0 -78.5 26t-30.5 70q0 68 66 120h-297z" />
    <glyph glyph-name="eogonek" unicode="&#x119;" horiz-adv-x="511" 
d="M407 1q-58 -47 -58 -82q0 -33 32 -33l42 4l12 -95q-59 -11 -102 -11q-48 0 -78.5 26t-30.5 70q0 59 52 109q-8 -1 -24 -1q-113 0 -164 60t-51 195q0 269 221 269q218 0 218 -226l-10 -93h-294q1 -46 24.5 -66.5t76.5 -20.5q36 0 82.5 2t74.5 4l28 3l2 -99q-30 -7 -67 -14
zM171 295h173q0 60 -19 83.5t-67 23.5q-47 0 -66.5 -24.5t-20.5 -82.5z" />
    <glyph glyph-name="Ecaron" unicode="&#x11a;" horiz-adv-x="554" 
d="M74 0v680h440v-120h-302v-159h242v-118h-242v-163h302v-120h-440zM221 765l-134 149h142l52 -56l49 56h142l-134 -149h-117z" />
    <glyph glyph-name="ecaron" unicode="&#x11b;" horiz-adv-x="510" 
d="M273 106q36 0 82.5 2t74.5 4l28 3l2 -99q-115 -28 -208 -28q-113 0 -164 60t-51 195q0 269 221 269q218 0 218 -226l-10 -93h-294q1 -46 24.5 -66.5t76.5 -20.5zM171 295h173q0 60 -19 83.5t-67 23.5q-47 0 -66.5 -24.5t-20.5 -82.5zM211 580l-126 151h123l46 -67l46 67
h123l-128 -151h-84z" />
    <glyph glyph-name="Gcircumflex" unicode="&#x11c;" horiz-adv-x="611" 
d="M357 244v120h198v-353q-143 -23 -232 -23q-159 0 -218.5 85t-59.5 267q0 188 62 270t211 82q47 0 106 -7t95 -14l36 -7l-4 -107q-120 13 -211 13q-62 0 -93 -18t-45.5 -66.5t-14.5 -145.5q0 -138 29 -185t120 -47l83 4v132h-62zM136 765l134 149h117l134 -149h-142
l-49 56l-52 -56h-142z" />
    <glyph glyph-name="gcircumflex" unicode="&#x11d;" horiz-adv-x="534" 
d="M278 -230q-120 0 -180.5 30t-60.5 109q0 63 72 119q-37 25 -37 76q0 11 10 31t20 35l9 14q-68 49 -68 149q0 91 57.5 134t152.5 43q20 0 45 -3t40 -7l16 -3l161 5v-107l-75 6q22 -34 22 -68q0 -100 -51 -138t-160 -38q-23 0 -41 4q-10 -26 -10 -39q0 -20 17 -26t80 -7
q126 -1 172 -33.5t46 -117.5q0 -86 -66 -127t-171 -41zM286 -27l-90 7q-27 -27 -27 -57q0 -43 110 -43q101 0 101 50q0 27 -18 34.5t-76 8.5zM254 259q76 0 76 74q0 73 -76 73q-77 0 -77 -73q0 -74 77 -74zM103 580l126 151h84l128 -151h-123l-46 67l-46 -67h-123z" />
    <glyph glyph-name="Gbreve" unicode="&#x11e;" horiz-adv-x="611" 
d="M357 244v120h198v-353q-143 -23 -232 -23q-159 0 -218.5 85t-59.5 267q0 188 62 270t211 82q47 0 106 -7t95 -14l36 -7l-4 -107q-120 13 -211 13q-62 0 -93 -18t-45.5 -66.5t-14.5 -145.5q0 -138 29 -185t120 -47l83 4v132h-62zM136 910h121q4 -25 21 -41t44 -16
q28 0 45.5 16t20.5 41h121q-8 -68 -54.5 -109.5t-132.5 -41.5t-132 41.5t-54 109.5z" />
    <glyph glyph-name="gbreve" unicode="&#x11f;" horiz-adv-x="534" 
d="M278 -230q-120 0 -180.5 30t-60.5 109q0 63 72 119q-37 25 -37 76q0 11 10 31t20 35l9 14q-68 49 -68 149q0 91 57.5 134t152.5 43q20 0 45 -3t40 -7l16 -3l161 5v-107l-75 6q22 -34 22 -68q0 -100 -51 -138t-160 -38q-23 0 -41 4q-10 -26 -10 -39q0 -20 17 -26t80 -7
q126 -1 172 -33.5t46 -117.5q0 -86 -66 -127t-171 -41zM286 -27l-90 7q-27 -27 -27 -57q0 -43 110 -43q101 0 101 50q0 27 -18 34.5t-76 8.5zM254 259q76 0 76 74q0 73 -76 73q-77 0 -77 -73q0 -74 77 -74zM107 730h101q4 -31 20.5 -48.5t42.5 -17.5q56 0 63 66h101
q-8 -65 -50.5 -111t-113.5 -46t-113.5 46t-50.5 111z" />
    <glyph glyph-name="Gdotaccent" unicode="&#x120;" horiz-adv-x="611" 
d="M357 244v120h198v-353q-143 -23 -232 -23q-159 0 -218.5 85t-59.5 267q0 188 62 270t211 82q47 0 106 -7t95 -14l36 -7l-4 -107q-120 13 -211 13q-62 0 -93 -18t-45.5 -66.5t-14.5 -145.5q0 -138 29 -185t120 -47l83 4v132h-62zM245 767v135h134v-135h-134z" />
    <glyph glyph-name="gdotaccent" unicode="&#x121;" horiz-adv-x="534" 
d="M278 -230q-120 0 -180.5 30t-60.5 109q0 63 72 119q-37 25 -37 76q0 11 10 31t20 35l9 14q-68 49 -68 149q0 91 57.5 134t152.5 43q20 0 45 -3t40 -7l16 -3l161 5v-107l-75 6q22 -34 22 -68q0 -100 -51 -138t-160 -38q-23 0 -41 4q-10 -26 -10 -39q0 -20 17 -26t80 -7
q126 -1 172 -33.5t46 -117.5q0 -86 -66 -127t-171 -41zM286 -27l-90 7q-27 -27 -27 -57q0 -43 110 -43q101 0 101 50q0 27 -18 34.5t-76 8.5zM254 259q76 0 76 74q0 73 -76 73q-77 0 -77 -73q0 -74 77 -74zM203 556v135h134v-135h-134z" />
    <glyph glyph-name="Gcommaaccent" unicode="&#x122;" horiz-adv-x="611" 
d="M357 244v120h198v-353q-143 -23 -232 -23q-159 0 -218.5 85t-59.5 267q0 188 62 270t211 82q47 0 106 -7t95 -14l36 -7l-4 -107q-120 13 -211 13q-62 0 -93 -18t-45.5 -66.5t-14.5 -145.5q0 -138 29 -185t120 -47l83 4v132h-62zM220 -311l46 234h130l-55 -234h-121z" />
    <glyph glyph-name="gcommaaccent" unicode="&#x123;" horiz-adv-x="534" 
d="M346 817l-46 -234h-130l55 234h121zM278 -230q-120 0 -180.5 30t-60.5 109q0 63 72 119q-37 25 -37 76q0 11 10 31t20 35l9 14q-68 49 -68 149q0 91 57.5 134t152.5 43q20 0 45 -3t40 -7l16 -3l161 5v-107l-75 6q22 -34 22 -68q0 -100 -51 -138t-160 -38q-23 0 -41 4
q-10 -26 -10 -39q0 -20 17 -26t80 -7q126 -1 172 -33.5t46 -117.5q0 -86 -66 -127t-171 -41zM286 -27l-90 7q-27 -27 -27 -57q0 -43 110 -43q101 0 101 50q0 27 -18 34.5t-76 8.5zM254 259q76 0 76 74q0 73 -76 73q-77 0 -77 -73q0 -74 77 -74z" />
    <glyph glyph-name="Hcircumflex" unicode="&#x124;" horiz-adv-x="677" 
d="M465 0v282h-253v-282h-138v680h138v-278h253v278h138v-680h-138zM146 765l134 149h117l134 -149h-142l-49 56l-52 -56h-142z" />
    <glyph glyph-name="hcircumflex" unicode="&#x125;" horiz-adv-x="553" 
d="M196 0h-134v700h134v-224q69 36 124 36q100 0 138 -59t38 -182v-271h-134v268q0 63 -15 93.5t-60 30.5q-20 0 -42.5 -4t-35.5 -8l-13 -4v-376zM107 750l126 151h84l128 -151h-123l-46 67l-46 -67h-123z" />
    <glyph glyph-name="Hbar" unicode="&#x126;" horiz-adv-x="685" 
d="M19 486v116h59v78h138v-78h253v78h138v-78h66v-116h-66v-486h-138v282h-253v-282h-138v486h-59zM216 402h253v84h-253v-84z" />
    <glyph glyph-name="hbar" unicode="&#x127;" horiz-adv-x="553" 
d="M12 532v116h50v52h134v-52h143v-116h-143v-56q69 36 124 36q100 0 138 -59t38 -182v-271h-134v268q0 63 -15 93.5t-60 30.5q-20 0 -42.5 -4t-35.5 -8l-13 -4v-376h-134v532h-50z" />
    <glyph glyph-name="Itilde" unicode="&#x128;" horiz-adv-x="286" 
d="M74 0v680h138v-680h-138zM305 918l29 -97q-6 -7 -16.5 -17.5t-38.5 -28t-52 -17.5q-28 0 -91.5 23t-77.5 23q-12 0 -32 -10.5t-34 -21.5l-14 -10l-29 96q6 7 16.5 17.5t38.5 28.5t52 18q35 0 96 -23t71 -23q12 0 32.5 10.5t34.5 21.5z" />
    <glyph glyph-name="itilde" unicode="&#x129;" horiz-adv-x="258" 
d="M62 0v500h134v-500h-134zM273 723l29 -76q-6 -7 -16 -17.5t-38 -27.5t-51 -17q-22 0 -68 18t-61 18q-12 0 -31.5 -7.5t-32.5 -15.5l-13 -8l-29 75q6 7 16 17t37.5 26.5t50.5 16.5q22 0 68.5 -18t58.5 -18t32 8.5t34 16.5z" />
    <glyph glyph-name="Imacron" unicode="&#x12a;" horiz-adv-x="286" 
d="M74 0v680h138v-680h-138zM-27 782v98h347v-98h-347z" />
    <glyph glyph-name="imacron" unicode="&#x12b;" horiz-adv-x="258" 
d="M62 0v500h134v-500h-134zM-14 597v100h287v-100h-287z" />
    <glyph glyph-name="Ibreve" unicode="&#x12c;" horiz-adv-x="286" 
d="M74 0v680h138v-680h-138zM-26 910h121q4 -25 21 -41t44 -16q28 0 45.5 16t20.5 41h121q-8 -68 -54.5 -109.5t-132.5 -41.5t-132 41.5t-54 109.5z" />
    <glyph glyph-name="ibreve" unicode="&#x12d;" horiz-adv-x="258" 
d="M62 0v500h134v-500h-134zM-35 730h101q4 -31 20.5 -48.5t42.5 -17.5q56 0 63 66h101q-8 -65 -50.5 -111t-113.5 -46t-113.5 46t-50.5 111z" />
    <glyph glyph-name="Iogonek" unicode="&#x12e;" horiz-adv-x="286" 
d="M74 0v680h138v-680q-8 -5 -19 -13.5t-29.5 -30t-18.5 -37.5q0 -33 32 -33l42 4l12 -95q-59 -11 -102 -11q-48 0 -78.5 26t-30.5 70q0 66 68 120h-14z" />
    <glyph glyph-name="iogonek" unicode="&#x12f;" horiz-adv-x="258" 
d="M62 0v500h134v-500q-8 -5 -19 -13.5t-29.5 -30t-18.5 -37.5q0 -33 32 -33l42 4l12 -95q-59 -11 -102 -11q-48 0 -78.5 26t-30.5 70q0 67 70 120h-12zM62 564v136h134v-136h-134z" />
    <glyph glyph-name="Idotaccent" unicode="&#x130;" horiz-adv-x="286" 
d="M74 0v680h138v-680h-138zM76 767v135h134v-135h-134z" />
    <glyph glyph-name="dotlessi" unicode="&#x131;" horiz-adv-x="258" 
d="M62 0v500h134v-500h-134z" />
    <glyph glyph-name="Jcircumflex" unicode="&#x134;" horiz-adv-x="302" 
d="M232 680l1 -565q0 -109 -48.5 -147t-165.5 -38v120q40 0 58 15t18 56v559h137zM-29 765l134 149h117l134 -149h-142l-49 56l-52 -56h-142z" />
    <glyph glyph-name="jcircumflex" unicode="&#x135;" horiz-adv-x="259" 
d="M63 24v476h134v-477q0 -102 -35.5 -150.5t-142.5 -102.5l-53 99q45 30 63 47t26 40.5t8 67.5zM-37 580l126 151h84l128 -151h-123l-46 67l-46 -67h-123z" />
    <glyph glyph-name="Kcommaaccent" unicode="&#x136;" horiz-adv-x="591" 
d="M418 0l-114 271l-92 -10v-261h-138v690h138v-296l90 10l112 286h159l-148 -343l152 -347h-159zM199 -311l46 234h130l-55 -234h-121z" />
    <glyph glyph-name="kcommaaccent" unicode="&#x137;" horiz-adv-x="515" 
d="M-10 -311l46 234h130l-55 -234h-121zM196 0h-134v700h134v-398l51 9l99 189h150l-130 -237l137 -263h-151l-101 195l-55 -9v-186z" />
    <glyph glyph-name="Lacute" unicode="&#x139;" horiz-adv-x="473" 
d="M461 0h-387v690h138v-557h249v-133zM110 839l252 106l41 -120l-260 -79z" />
    <glyph glyph-name="lacute" unicode="&#x13a;" horiz-adv-x="270" 
d="M68 0v700h134v-700h-134zM41 861l252 102l40 -115l-262 -74z" />
    <glyph glyph-name="Lcommaaccent" unicode="&#x13b;" horiz-adv-x="472" 
d="M158 -311l46 234h130l-55 -234h-121zM461 0h-387v680h138v-558h249v-122z" />
    <glyph glyph-name="lcommaaccent" unicode="&#x13c;" horiz-adv-x="270" 
d="M68 0v700h134v-700h-134zM20 -311l46 234h130l-55 -234h-121z" />
    <glyph glyph-name="Lcaron" unicode="&#x13d;" horiz-adv-x="498" 
d="M461 690v-260h-130v260h130zM461 0h-387v680h138v-558h249v-122z" />
    <glyph glyph-name="lcaron" unicode="&#x13e;" horiz-adv-x="377" 
d="M257 444l46 234h130l-55 -234h-121zM68 0v700h134v-700h-134z" />
    <glyph glyph-name="Lslash" unicode="&#x141;" horiz-adv-x="481" 
d="M470 0h-387v217l-42 -29l-65 90l107 75v327h138v-231l99 70l65 -90l-164 -115v-192h249v-122z" />
    <glyph glyph-name="lslash" unicode="&#x142;" horiz-adv-x="381" 
d="M119 0v218l-51 -35l-65 90l116 81v346h134v-252l63 44l65 -90l-128 -90v-312h-134z" />
    <glyph glyph-name="Nacute" unicode="&#x143;" horiz-adv-x="693" 
d="M74 0v680h233l164 -560h10v560h138v-680h-227l-170 560h-10v-560h-138zM202 839l252 106l41 -120l-260 -79z" />
    <glyph glyph-name="nacute" unicode="&#x144;" horiz-adv-x="553" 
d="M196 0h-134v500h133v-28q68 40 125 40q100 0 138 -59t38 -182v-271h-134v267q0 64 -15 94.5t-60 30.5q-21 0 -43.5 -4.5t-35.5 -9.5l-12 -4v-374zM146 651l252 102l40 -115l-262 -74z" />
    <glyph glyph-name="Ncommaaccent" unicode="&#x145;" horiz-adv-x="693" 
d="M253 -311l46 234h130l-55 -234h-121zM74 0v680h233l164 -560h10v560h138v-680h-227l-170 560h-10v-560h-138z" />
    <glyph glyph-name="ncommaaccent" unicode="&#x146;" horiz-adv-x="553" 
d="M-10 -311l46 234h130l-55 -234h-121zM196 0h-134v500h133v-28q68 40 125 40q100 0 138 -59t38 -182v-271h-134v267q0 64 -15 94.5t-60 30.5q-21 0 -43.5 -4.5t-35.5 -9.5l-12 -4v-374z" />
    <glyph glyph-name="Ncaron" unicode="&#x147;" horiz-adv-x="693" 
d="M74 0v680h233l164 -560h10v560h138v-680h-227l-170 560h-10v-560h-138zM289 765l-134 149h142l52 -56l49 56h142l-134 -149h-117z" />
    <glyph glyph-name="ncaron" unicode="&#x148;" horiz-adv-x="553" 
d="M196 0h-134v500h133v-28q68 40 125 40q100 0 138 -59t38 -182v-271h-134v267q0 64 -15 94.5t-60 30.5q-21 0 -43.5 -4.5t-35.5 -9.5l-12 -4v-374zM231 580l-126 151h123l46 -67l46 67h123l-128 -151h-84z" />
    <glyph glyph-name="Eng" unicode="&#x14a;" horiz-adv-x="693" 
d="M74 0v680h233l164 -560h10v560h138v-707q0 -109 -48.5 -147t-165.5 -38v120q40 0 58 15t18 56v21h-89l-170 560h-10v-560h-138z" />
    <glyph glyph-name="eng" unicode="&#x14b;" horiz-adv-x="552" 
d="M195 0h-134v499h134v-22q82 35 129 35q93 0 132.5 -64.5t39.5 -186.5v-256q0 -105 -33.5 -153t-144.5 -100l-60 111q69 38 86.5 60.5t17.5 76.5v261q0 128 -66 128q-15 0 -40 -4.5t-43 -8.5l-18 -5v-371z" />
    <glyph glyph-name="Omacron" unicode="&#x14c;" horiz-adv-x="652" 
d="M326 108q81 0 110.5 52.5t29.5 175.5q0 124 -30 180t-110 56t-110 -56t-30 -180q0 -123 29.5 -175.5t110.5 -52.5zM326 -12q-155 0 -218.5 84.5t-63.5 263.5q0 181 63.5 268.5t218.5 87.5t218.5 -87.5t63.5 -268.5q0 -179 -63.5 -263.5t-218.5 -84.5zM149 782v98h347v-98
h-347z" />
    <glyph glyph-name="omacron" unicode="&#x14d;" horiz-adv-x="532" 
d="M266 512q124 0 177 -68.5t53 -192.5q0 -263 -230 -263t-230 263q0 124 53 192.5t177 68.5zM266 102q53 0 73.5 36t20.5 113t-20.5 112t-73.5 35t-73.5 -35t-20.5 -112t20.5 -113t73.5 -36zM126 597v100h287v-100h-287z" />
    <glyph glyph-name="Obreve" unicode="&#x14e;" horiz-adv-x="652" 
d="M326 108q81 0 110.5 52.5t29.5 175.5q0 124 -30 180t-110 56t-110 -56t-30 -180q0 -123 29.5 -175.5t110.5 -52.5zM326 -12q-155 0 -218.5 84.5t-63.5 263.5q0 181 63.5 268.5t218.5 87.5t218.5 -87.5t63.5 -268.5q0 -179 -63.5 -263.5t-218.5 -84.5zM141 910h121
q4 -25 21 -41t44 -16q28 0 45.5 16t20.5 41h121q-8 -68 -54.5 -109.5t-132.5 -41.5t-132 41.5t-54 109.5z" />
    <glyph glyph-name="obreve" unicode="&#x14f;" horiz-adv-x="532" 
d="M266 512q124 0 177 -68.5t53 -192.5q0 -263 -230 -263t-230 263q0 124 53 192.5t177 68.5zM266 102q53 0 73.5 36t20.5 113t-20.5 112t-73.5 35t-73.5 -35t-20.5 -112t20.5 -113t73.5 -36zM104 730h101q4 -31 20.5 -48.5t42.5 -17.5q56 0 63 66h101q-8 -65 -50.5 -111
t-113.5 -46t-113.5 46t-50.5 111z" />
    <glyph glyph-name="Ohungarumlaut" unicode="&#x150;" horiz-adv-x="652" 
d="M326 108q81 0 110.5 52.5t29.5 175.5q0 124 -30 180t-110 56t-110 -56t-30 -180q0 -123 29.5 -175.5t110.5 -52.5zM326 -12q-155 0 -218.5 84.5t-63.5 263.5q0 181 63.5 268.5t218.5 87.5t218.5 -87.5t63.5 -268.5q0 -179 -63.5 -263.5t-218.5 -84.5zM366 775l67 197
l116 -42l-78 -191zM158 776l67 197l116 -42l-78 -191z" />
    <glyph glyph-name="ohungarumlaut" unicode="&#x151;" horiz-adv-x="532" 
d="M266 512q124 0 177 -68.5t53 -192.5q0 -263 -230 -263t-230 263q0 124 53 192.5t177 68.5zM266 102q53 0 73.5 36t20.5 113t-20.5 112t-73.5 35t-73.5 -35t-20.5 -112t20.5 -113t73.5 -36zM257 628l117 190l109 -67l-125 -188zM53 628l117 189l109 -66l-125 -188z" />
    <glyph glyph-name="OE" unicode="&#x152;" horiz-adv-x="902" 
d="M861 0h-436q-76 -12 -119 -12q-151 0 -205.5 83.5t-54.5 273.5q0 196 58.5 276.5t201.5 80.5q43 0 117 -12h438v-132h-302v-143h242v-131h-242v-152h302v-132zM330 124q25 0 93 6v430q-70 6 -97 6q-55 0 -83.5 -17.5t-41.5 -65t-13 -138.5q0 -131 27.5 -176t114.5 -45z
" />
    <glyph glyph-name="oe" unicode="&#x153;" horiz-adv-x="834" 
d="M596 111q36 0 82.5 2.5t74.5 4.5l28 2l2 -104q-115 -28 -208 -28q-108 0 -153 68q-48 -68 -156 -68q-124 0 -177 69t-53 193t53 192.5t177 68.5q58 0 97 -18.5t65 -62.5q26 45 63.5 63t89.5 18q218 0 218 -225l-10 -94h-294q1 -43 24 -62t77 -19zM266 109q53 0 73.5 34
t20.5 107t-20.5 106.5t-73.5 33.5t-73.5 -33.5t-20.5 -106.5t20.5 -107t73.5 -34zM494 295h173q0 53 -19.5 75t-66.5 22t-67 -23.5t-20 -73.5z" />
    <glyph glyph-name="Racute" unicode="&#x154;" horiz-adv-x="620" 
d="M345 228h-133v-228h-138v680h264q240 0 240 -224q0 -133 -100 -196l97 -260h-151zM437 454q0 50 -25.5 79t-73.5 29h-126v-216h128q49 0 73 30t24 78zM170 839l252 106l41 -120l-260 -79z" />
    <glyph glyph-name="racute" unicode="&#x155;" horiz-adv-x="372" 
d="M62 0v500h133v-53q84 50 160 65v-135q-39 -8 -79 -18.5t-60 -16.5l-20 -7v-335h-134zM48 651l252 102l40 -115l-262 -74z" />
    <glyph glyph-name="Rcommaaccent" unicode="&#x156;" horiz-adv-x="620" 
d="M211 -311l46 234h130l-55 -234h-121zM345 228h-133v-228h-138v680h264q240 0 240 -224q0 -133 -100 -196l97 -260h-151zM437 454q0 50 -25.5 79t-73.5 29h-126v-216h128q49 0 73 30t24 78z" />
    <glyph glyph-name="rcommaaccent" unicode="&#x157;" horiz-adv-x="372" 
d="M16 -311l46 234h130l-55 -234h-121zM62 0v500h133v-53q84 50 160 65v-135q-39 -8 -79 -18.5t-60 -16.5l-20 -7v-335h-134z" />
    <glyph glyph-name="Rcaron" unicode="&#x158;" horiz-adv-x="620" 
d="M345 228h-133v-228h-138v680h264q240 0 240 -224q0 -133 -100 -196l97 -260h-151zM437 454q0 50 -25.5 79t-73.5 29h-126v-216h128q49 0 73 30t24 78zM241 765l-134 149h142l52 -56l49 56h142l-134 -149h-117z" />
    <glyph glyph-name="rcaron" unicode="&#x159;" horiz-adv-x="372" 
d="M62 0v500h133v-53q84 50 160 65v-135q-39 -8 -79 -18.5t-60 -16.5l-20 -7v-335h-134zM131 580l-126 151h123l46 -67l46 67h123l-128 -151h-84z" />
    <glyph glyph-name="Sacute" unicode="&#x15a;" horiz-adv-x="544" 
d="M493 665l-11 -109q-141 16 -199 16q-109 0 -109 -72q0 -32 27 -49t114 -45q112 -36 152 -76.5t40 -124.5q0 -107 -65 -162t-170 -55q-41 0 -98 8t-93 16l-36 7l14 107q134 -18 205 -18q106 0 106 88q0 32 -24.5 50t-97.5 39q-116 33 -163.5 78.5t-47.5 126.5
q0 102 62 152t170 50q40 0 96 -7t92 -13zM144 839l252 106l41 -120l-260 -79z" />
    <glyph glyph-name="sacute" unicode="&#x15b;" horiz-adv-x="472" 
d="M423 486l-2 -111q-124 16 -182 16q-41 0 -55.5 -9t-14.5 -31q0 -17 19.5 -24.5t91.5 -20.5q89 -16 123 -49t34 -107q0 -162 -201 -162q-33 0 -81 6t-79 12l-32 6l4 112q124 -16 175 -16q46 0 63.5 9.5t17.5 29.5q0 18 -18.5 27t-84.5 20q-89 15 -127 46t-38 108
q0 82 54 122.5t139 40.5q32 0 80.5 -6.5t80.5 -12.5zM91 651l252 102l40 -115l-262 -74z" />
    <glyph glyph-name="Scircumflex" unicode="&#x15c;" horiz-adv-x="544" 
d="M493 665l-11 -109q-141 16 -199 16q-109 0 -109 -72q0 -32 27 -49t114 -45q112 -36 152 -76.5t40 -124.5q0 -107 -65 -162t-170 -55q-41 0 -98 8t-93 16l-36 7l14 107q134 -18 205 -18q106 0 106 88q0 32 -24.5 50t-97.5 39q-116 33 -163.5 78.5t-47.5 126.5
q0 102 62 152t170 50q40 0 96 -7t92 -13zM84 765l134 149h117l134 -149h-142l-49 56l-52 -56h-142z" />
    <glyph glyph-name="scircumflex" unicode="&#x15d;" horiz-adv-x="472" 
d="M423 486l-2 -111q-124 16 -182 16q-41 0 -55.5 -9t-14.5 -31q0 -17 19.5 -24.5t91.5 -20.5q89 -16 123 -49t34 -107q0 -162 -201 -162q-33 0 -81 6t-79 12l-32 6l4 112q124 -16 175 -16q46 0 63.5 9.5t17.5 29.5q0 18 -18.5 27t-84.5 20q-89 15 -127 46t-38 108
q0 82 54 122.5t139 40.5q32 0 80.5 -6.5t80.5 -12.5zM68 580l126 151h84l128 -151h-123l-46 67l-46 -67h-123z" />
    <glyph glyph-name="Scedilla" unicode="&#x15e;" horiz-adv-x="544" 
d="M434 -127q0 -57 -29 -85.5t-82 -28.5q-19 0 -42.5 2.5t-36.5 5.5l-14 3l4 78q31 -1 48 -1q38 0 38 26q0 22 -38 22h-24v93q-41 1 -94 9t-86 15l-33 7l14 107q134 -18 205 -18q106 0 106 88q0 32 -24.5 50t-97.5 39q-116 33 -163.5 78.5t-47.5 126.5q0 102 62 152t170 50
q40 0 96 -7t92 -13l36 -7l-11 -109q-141 16 -199 16q-109 0 -109 -72q0 -32 27 -49t114 -45q112 -36 152 -76.5t40 -124.5q0 -96 -53.5 -151t-142.5 -64v-27q64 -1 93.5 -19t29.5 -71z" />
    <glyph glyph-name="scedilla" unicode="&#x15f;" horiz-adv-x="472" 
d="M379 -127q0 -57 -29 -85.5t-82 -28.5q-19 0 -42.5 2.5t-37.5 5.5l-13 3l4 78q31 -1 48 -1q38 0 38 26q0 22 -38 22h-24v95q-32 2 -71.5 7.5t-63.5 10.5l-24 4l4 112q124 -16 175 -16q46 0 63.5 9.5t17.5 29.5q0 18 -18.5 27t-84.5 20q-89 15 -127 46t-38 108
q0 82 54 122.5t139 40.5q32 0 80.5 -6.5t80.5 -12.5l33 -6l-2 -111q-124 16 -182 16q-41 0 -55.5 -9t-14.5 -31q0 -17 19.5 -24.5t91.5 -20.5q89 -16 123 -49t34 -107q0 -155 -181 -161v-26q64 -1 93.5 -19t29.5 -71z" />
    <glyph glyph-name="Scaron" unicode="&#x160;" horiz-adv-x="544" 
d="M493 665l-11 -109q-141 16 -199 16q-109 0 -109 -72q0 -32 27 -49t114 -45q112 -36 152 -76.5t40 -124.5q0 -107 -65 -162t-170 -55q-41 0 -98 8t-93 16l-36 7l14 107q134 -18 205 -18q106 0 106 88q0 32 -24.5 50t-97.5 39q-116 33 -163.5 78.5t-47.5 126.5
q0 102 62 152t170 50q40 0 96 -7t92 -13zM235 765l-134 149h142l52 -56l49 56h142l-134 -149h-117z" />
    <glyph glyph-name="scaron" unicode="&#x161;" horiz-adv-x="472" 
d="M423 486l-2 -111q-124 16 -182 16q-41 0 -55.5 -9t-14.5 -31q0 -17 19.5 -24.5t91.5 -20.5q89 -16 123 -49t34 -107q0 -162 -201 -162q-33 0 -81 6t-79 12l-32 6l4 112q124 -16 175 -16q46 0 63.5 9.5t17.5 29.5q0 18 -18.5 27t-84.5 20q-89 15 -127 46t-38 108
q0 82 54 122.5t139 40.5q32 0 80.5 -6.5t80.5 -12.5zM203 580l-126 151h123l46 -67l46 67h123l-128 -151h-84z" />
    <glyph glyph-name="Tcommaaccent" unicode="&#x162;" horiz-adv-x="526" 
d="M177 -311l46 234h130l-55 -234h-121zM13 558v122h500v-122h-180v-558h-138v558h-182z" />
    <glyph glyph-name="tcommaaccent" unicode="&#x163;" horiz-adv-x="364" 
d="M3 -311l46 234h130l-55 -234h-121zM339 386h-123v-205q0 -30 1.5 -42.5t11 -21.5t29.5 -9l76 2l6 -107q-67 -15 -102 -15q-90 0 -123 40.5t-33 149.5v208h-59v114h59v139h134v-139h123v-114z" />
    <glyph glyph-name="Tcaron" unicode="&#x164;" horiz-adv-x="526" 
d="M13 558v122h500v-122h-180v-558h-138v558h-182zM206 765l-134 149h142l52 -56l49 56h142l-134 -149h-117z" />
    <glyph glyph-name="tcaron" unicode="&#x165;" horiz-adv-x="487" 
d="M340 378h-123v-189q0 -30 1.5 -42.5t11 -21.5t29.5 -9l76 2l6 -115q-67 -15 -102 -15q-90 0 -123 40.5t-33 149.5v200h-59v121h59v140h134v-140h123v-121zM506 690v-260h-130v260h130z" />
    <glyph glyph-name="Tbar" unicode="&#x166;" horiz-adv-x="528" 
d="M14 558v122h500v-122h-180v-189h139v-116h-139v-253h-138v253h-132v116h132v189h-182z" />
    <glyph glyph-name="tbar" unicode="&#x167;" horiz-adv-x="365" 
d="M339 378h-123v-69h95v-100h-95v-20q0 -30 1.5 -42.5t11 -21.5t29.5 -9l76 2l6 -115q-67 -15 -102 -15q-90 0 -123 40.5t-33 149.5v31h-30v100h30v69h-59v121h59v140h134v-140h123v-121z" />
    <glyph glyph-name="Utilde" unicode="&#x168;" horiz-adv-x="654" 
d="M206 227q0 -119 121 -119t121 119v453h138v-450q0 -125 -64.5 -183.5t-194.5 -58.5t-194.5 58.5t-64.5 183.5v450h138v-453zM484 918l29 -97q-6 -7 -16.5 -17.5t-38.5 -28t-52 -17.5q-28 0 -91.5 23t-77.5 23q-12 0 -32 -10.5t-34 -21.5l-14 -10l-29 96q6 7 16.5 17.5
t38.5 28.5t52 18q35 0 96 -23t71 -23q12 0 32.5 10.5t35.5 21.5z" />
    <glyph glyph-name="utilde" unicode="&#x169;" horiz-adv-x="553" 
d="M357 500h134v-500h-133v28q-72 -40 -125 -40q-104 0 -140 57.5t-36 192.5v262h134v-264q0 -74 12 -101t58 -27q22 0 46 4.5t37 9.5l13 4v374zM410 723l29 -76q-6 -7 -16 -17.5t-38 -27.5t-51 -17q-22 0 -68 18t-61 18q-12 0 -31.5 -7.5t-32.5 -15.5l-13 -8l-29 75
q6 7 16 17t37.5 26.5t50.5 16.5q22 0 68.5 -18t58.5 -18t32 8.5t34 16.5z" />
    <glyph glyph-name="Umacron" unicode="&#x16a;" horiz-adv-x="654" 
d="M206 227q0 -119 121 -119t121 119v453h138v-450q0 -125 -64.5 -183.5t-194.5 -58.5t-194.5 58.5t-64.5 183.5v450h138v-453zM157 782v98h347v-98h-347z" />
    <glyph glyph-name="umacron" unicode="&#x16b;" horiz-adv-x="553" 
d="M357 500h134v-500h-133v28q-72 -40 -125 -40q-104 0 -140 57.5t-36 192.5v262h134v-264q0 -74 12 -101t58 -27q22 0 46 4.5t37 9.5l13 4v374zM133 597v100h287v-100h-287z" />
    <glyph glyph-name="Ubreve" unicode="&#x16c;" horiz-adv-x="654" 
d="M206 227q0 -119 121 -119t121 119v453h138v-450q0 -125 -64.5 -183.5t-194.5 -58.5t-194.5 58.5t-64.5 183.5v450h138v-453zM145 910h121q4 -25 21 -41t44 -16q28 0 45.5 16t20.5 41h121q-8 -68 -54.5 -109.5t-132.5 -41.5t-132 41.5t-54 109.5z" />
    <glyph glyph-name="ubreve" unicode="&#x16d;" horiz-adv-x="553" 
d="M357 500h134v-500h-133v28q-72 -40 -125 -40q-104 0 -140 57.5t-36 192.5v262h134v-264q0 -74 12 -101t58 -27q22 0 46 4.5t37 9.5l13 4v374zM112 730h101q4 -31 20.5 -48.5t42.5 -17.5q56 0 63 66h101q-8 -65 -50.5 -111t-113.5 -46t-113.5 46t-50.5 111z" />
    <glyph glyph-name="Uring" unicode="&#x16e;" horiz-adv-x="654" 
d="M206 227q0 -119 121 -119t121 119v453h138v-450q0 -125 -64.5 -183.5t-194.5 -58.5t-194.5 58.5t-64.5 183.5v450h138v-453zM481 839q0 -59 -43 -92.5t-107 -33.5t-107 33.5t-43 92.5t43 92.5t107 33.5t107 -33.5t43 -92.5zM272 839q0 -19 16 -30t43 -11t43 11t16 30
t-16 30t-43 11t-43 -11t-16 -30z" />
    <glyph glyph-name="uring" unicode="&#x16f;" horiz-adv-x="553" 
d="M357 500h134v-500h-133v28q-72 -40 -125 -40q-104 0 -140 57.5t-36 192.5v262h134v-264q0 -74 12 -101t58 -27q22 0 46 4.5t37 9.5l13 4v374zM159 638q0 49 33.5 83t83.5 34q49 0 83 -34t34 -83q0 -50 -34 -83.5t-83 -33.5q-50 0 -83.5 33.5t-33.5 83.5zM231 638
q0 -20 13 -33t33 -13t32.5 13t12.5 33t-13 32.5t-32 12.5q-20 0 -33 -12.5t-13 -32.5z" />
    <glyph glyph-name="Uhungarumlaut" unicode="&#x170;" horiz-adv-x="654" 
d="M206 227q0 -119 121 -119t121 119v453h138v-450q0 -125 -64.5 -183.5t-194.5 -58.5t-194.5 58.5t-64.5 183.5v450h138v-453zM361 775l67 197l116 -42l-78 -191zM153 776l67 197l116 -42l-78 -191z" />
    <glyph glyph-name="uhungarumlaut" unicode="&#x171;" horiz-adv-x="553" 
d="M357 500h134v-500h-133v28q-72 -40 -125 -40q-104 0 -140 57.5t-36 192.5v262h134v-264q0 -74 12 -101t58 -27q22 0 46 4.5t37 9.5l13 4v374zM300 628l117 190l109 -67l-125 -188zM96 628l117 189l109 -66l-125 -188z" />
    <glyph glyph-name="Uogonek" unicode="&#x172;" horiz-adv-x="656" 
d="M207 227q0 -119 121 -119t121 119v453h138v-450q0 -197 -167 -233q-53 -45 -53 -78t32 -33l42 4l12 -95q-59 -11 -102 -11q-48 0 -78.5 26t-30.5 70q0 60 53 109q-113 7 -169.5 65t-56.5 176v450h138v-453z" />
    <glyph glyph-name="uogonek" unicode="&#x173;" horiz-adv-x="553" 
d="M357 499h134v-499q-8 -4 -20 -11t-31.5 -28.5t-19.5 -41.5q0 -33 32 -33l42 4l12 -95q-59 -11 -102 -11q-48 0 -78.5 26t-30.5 70q0 66 74 120h-12v21q-78 -33 -124 -33q-105 0 -140.5 57t-35.5 193v261h134v-261q0 -76 11.5 -102.5t58.5 -26.5q15 0 39 4.5t40 8.5l17 4
v373z" />
    <glyph glyph-name="Wcircumflex" unicode="&#x174;" horiz-adv-x="930" 
d="M19 680h145l84 -562h15l122 562h160l122 -562h15l84 562h145l-130 -680h-209l-107 517l-107 -517h-209zM273 765l134 149h117l134 -149h-142l-49 56l-52 -56h-142z" />
    <glyph glyph-name="wcircumflex" unicode="&#x175;" horiz-adv-x="772" 
d="M24 500h132l61 -386h24l76 376h138l76 -376h24l61 386h132l-95 -500h-210l-57 306l-57 -306h-210zM219 580l126 151h84l128 -151h-123l-46 67l-46 -67h-123z" />
    <glyph glyph-name="Ycircumflex" unicode="&#x176;" horiz-adv-x="557" 
d="M348 275v-275h-138v275l-210 405h153l125 -271l125 271h153zM88 765l134 149h117l134 -149h-142l-49 56l-52 -56h-142z" />
    <glyph glyph-name="ycircumflex" unicode="&#x177;" horiz-adv-x="500" 
d="M16 500h132l91 -386h23l91 386h132l-176 -710h-131l55 210h-94zM82 580l126 151h84l128 -151h-123l-46 67l-46 -67h-123z" />
    <glyph glyph-name="Ydieresis" unicode="&#x178;" horiz-adv-x="557" 
d="M348 275v-275h-138v275l-210 405h153l125 -271l125 271h153zM105 764v132h128v-132h-128zM319 764v132h128v-132h-128z" />
    <glyph glyph-name="Zacute" unicode="&#x179;" horiz-adv-x="532" 
d="M41 560v120h450v-120l-284 -422v-18h284v-120h-450v119l284 423v18h-284zM121 839l252 106l41 -120l-260 -79z" />
    <glyph glyph-name="zacute" unicode="&#x17a;" horiz-adv-x="454" 
d="M41 380v120h371v-120l-210 -260h210v-120h-371v120l210 260h-210zM82 651l252 102l40 -115l-262 -74z" />
    <glyph glyph-name="Zdotaccent" unicode="&#x17b;" horiz-adv-x="532" 
d="M41 560v120h450v-120l-284 -422v-18h284v-120h-450v119l284 423v18h-284zM199 767v135h134v-135h-134z" />
    <glyph glyph-name="zdotaccent" unicode="&#x17c;" horiz-adv-x="454" 
d="M41 380v120h371v-120l-210 -260h210v-120h-371v120l210 260h-210zM159 556v135h134v-135h-134z" />
    <glyph glyph-name="Zcaron" unicode="&#x17d;" horiz-adv-x="532" 
d="M41 560v120h450v-120l-284 -422v-18h284v-120h-450v119l284 423v18h-284zM210 765l-134 149h142l52 -56l49 56h142l-134 -149h-117z" />
    <glyph glyph-name="zcaron" unicode="&#x17e;" horiz-adv-x="454" 
d="M41 380v120h371v-120l-210 -260h210v-120h-371v120l210 260h-210zM194 580l-126 151h123l46 -67l46 67h123l-128 -151h-84z" />
    <glyph glyph-name="florin" unicode="&#x192;" 
d="M321 -47q0 -103 -39.5 -143t-128.5 -40q-24 0 -51 3t-42 7l-16 3v110q64 -3 92 -3q51 0 51 66v430h-54v114h54v24q0 107 31.5 147.5t114.5 40.5q15 0 43 -3t48 -7l21 -3v-109q-44 2 -76 2q-28 0 -38 -15.5t-10 -53.5v-23h121v-114h-121v-433z" />
    <glyph glyph-name="Aringacute" unicode="&#x1fa;" horiz-adv-x="602" 
d="M450 721q0 -33 -14 -58l149 -663h-138l-27 123h-238l-27 -123h-138l148 660q-15 26 -15 61q0 59 43 92.5t107 33.5t107 -33.5t43 -92.5zM277 566l-69 -323h186l-69 323h-48zM142 939l252 106l41 -120l-260 -79zM241 721q0 -19 16 -30t43 -11h5q25 1 39.5 12t14.5 29
q0 19 -16 30t-43 11t-43 -11t-16 -30z" />
    <glyph glyph-name="aringacute" unicode="&#x1fb;" horiz-adv-x="511" 
d="M445 344v-208q2 -24 8 -33.5t25 -13.5l-4 -101q-51 0 -81.5 7t-61.5 28q-72 -35 -147 -35q-155 0 -155 164q0 80 43 113.5t132 39.5l107 8v31q0 31 -14 42.5t-45 11.5l-188 -8l-4 93q107 29 203 29q97 0 139.5 -40t42.5 -128zM311 220l-91 -8q-56 -5 -56 -56
q0 -59 49 -59q19 0 43.5 4t39.5 8l15 4v107zM135 638q0 49 33.5 83t83.5 34q49 0 83 -34t34 -83q0 -50 -34 -83.5t-83 -33.5q-50 0 -83.5 33.5t-33.5 83.5zM207 638q0 -20 13 -33t33 -13t32.5 13t12.5 33t-13 32.5t-32 12.5q-20 0 -33 -12.5t-13 -32.5zM108 852l252 102
l40 -115l-262 -74z" />
    <glyph glyph-name="AEacute" unicode="&#x1fc;" horiz-adv-x="872" 
d="M393 0v116h-213l-29 -116h-138l184 690h634v-132h-302v-143h242v-131h-242v-152h302v-132h-438zM294 558l-80 -309h179l1 309h-100zM365 839l252 106l41 -120l-260 -79z" />
    <glyph glyph-name="aeacute" unicode="&#x1fd;" horiz-adv-x="784" 
d="M546 111q36 0 82.5 2.5t74.5 4.5l28 2l2 -104q-115 -28 -208 -28q-102 0 -153 48l-23 -11q-84 -37 -171 -37q-73 0 -111 43.5t-38 120.5q0 80 43.5 114.5t130.5 39.5l108 7v25q0 20 -14 32.5t-36 12.5q-33 0 -81.5 -2.5t-80.5 -5.5l-32 -3l-4 117q133 22 206 22
q86 0 129 -37q52 37 133 37q218 0 218 -225l-10 -94h-294q1 -43 24 -62t77 -19zM205 103q18 0 44.5 3.5t44.5 7.5l17 4q0 16 -0.5 47t-0.5 46l-90 -4q-56 -3 -56 -51q0 -53 41 -53zM445 295h172q0 53 -19.5 75t-66.5 22q-48 0 -67 -23t-19 -74zM256 651l252 102l40 -115
l-262 -74z" />
    <glyph glyph-name="Oslashacute" unicode="&#x1fe;" horiz-adv-x="654" 
d="M327 -12q-49 0 -96 10l-58 -125l-98 49l58 124q-88 78 -88 290q0 181 63.5 268.5t218.5 87.5q57 0 101 -12l61 130l100 -43l-65 -140q85 -82 85 -291q0 -179 -63.5 -263.5t-218.5 -84.5zM187 336q0 -93 15 -142l173 371q-24 7 -48 7q-80 0 -110 -56t-30 -180zM327 108
q81 0 110.5 52.5t29.5 175.5q0 89 -14 139l-169 -363q17 -4 43 -4zM170 839l252 106l41 -120l-260 -79z" />
    <glyph glyph-name="oslashacute" unicode="&#x1ff;" horiz-adv-x="532" 
d="M266 512q28 0 56 -5l40 100l81 -30l-41 -98q94 -59 94 -228q0 -263 -230 -263q-34 0 -63 6l-41 -102l-80 30l43 103q-89 60 -89 226q0 124 53 192.5t177 68.5zM121 651l252 102l40 -115l-262 -74zM266 102q53 0 73.5 36t20.5 113q0 65 -14 99l-100 -247q6 -1 20 -1z
M266 398q-53 0 -73.5 -35t-20.5 -112q0 -63 12 -95l95 241q-2 0 -6.5 0.5t-6.5 0.5z" />
    <glyph glyph-name="Scommaaccent" unicode="&#x218;" horiz-adv-x="544" 
d="M169 -311l46 234h130l-55 -234h-121zM493 665l-11 -109q-141 16 -199 16q-109 0 -109 -72q0 -32 27 -49t114 -45q112 -36 152 -76.5t40 -124.5q0 -107 -65 -162t-170 -55q-41 0 -98 8t-93 16l-36 7l14 107q134 -18 205 -18q106 0 106 88q0 32 -24.5 50t-97.5 39
q-116 33 -163.5 78.5t-47.5 126.5q0 102 62 152t170 50q40 0 96 -7t92 -13z" />
    <glyph glyph-name="scommaaccent" unicode="&#x219;" horiz-adv-x="472" 
d="M-17 -311l46 234h130l-55 -234h-121zM423 486l-2 -111q-124 16 -182 16q-41 0 -55.5 -9t-14.5 -31q0 -17 19.5 -24.5t91.5 -20.5q89 -16 123 -49t34 -107q0 -162 -201 -162q-33 0 -81 6t-79 12l-32 6l4 112q124 -16 175 -16q46 0 63.5 9.5t17.5 29.5q0 18 -18.5 27
t-84.5 20q-89 15 -127 46t-38 108q0 82 54 122.5t139 40.5q32 0 80.5 -6.5t80.5 -12.5z" />
    <glyph glyph-name="uni021A" unicode="&#x21a;" horiz-adv-x="526" 
d="M177 -311l46 234h130l-55 -234h-121zM13 558v122h500v-122h-180v-558h-138v558h-182z" />
    <glyph glyph-name="uni021B" unicode="&#x21b;" horiz-adv-x="364" 
d="M3 -311l46 234h130l-55 -234h-121zM339 386h-123v-205q0 -30 1.5 -42.5t11 -21.5t29.5 -9l76 2l6 -107q-67 -15 -102 -15q-90 0 -123 40.5t-33 149.5v208h-59v114h59v139h134v-139h123v-114z" />
    <glyph glyph-name="dotlessj" unicode="&#x237;" horiz-adv-x="259" 
d="M63 24v476h134v-477q0 -102 -35.5 -150.5t-142.5 -102.5l-53 99q45 30 63 47t26 40.5t8 67.5z" />
    <glyph glyph-name="circumflex" unicode="&#x2c6;" horiz-adv-x="268" 
d="M-24 580l126 151h84l128 -151h-123l-46 67l-46 -67h-123z" />
    <glyph glyph-name="caron" unicode="&#x2c7;" horiz-adv-x="268" 
d="M106 580l-126 151h123l46 -67l46 67h123l-128 -151h-84z" />
    <glyph glyph-name="breve" unicode="&#x2d8;" horiz-adv-x="268" 
d="M-20 730h101q4 -31 20.5 -48.5t42.5 -17.5q56 0 63 66h101q-8 -65 -50.5 -111t-113.5 -46t-113.5 46t-50.5 111z" />
    <glyph glyph-name="dotaccent" unicode="&#x2d9;" horiz-adv-x="268" 
d="M67 556v135h134v-135h-134z" />
    <glyph glyph-name="ring" unicode="&#x2da;" horiz-adv-x="268" 
d="M20 638q0 49 33.5 83t83.5 34q49 0 83 -34t34 -83q0 -50 -34 -83.5t-83 -33.5q-50 0 -83.5 33.5t-33.5 83.5zM92 638q0 -20 13 -33t33 -13t32.5 13t12.5 33t-12.5 32.5t-32.5 12.5t-33 -12.5t-13 -32.5z" />
    <glyph glyph-name="ogonek" unicode="&#x2db;" horiz-adv-x="474" 
d="M402 1q-58 -47 -58 -82q0 -33 32 -33l42 4l12 -95q-59 -11 -102 -11q-48 0 -78.5 26t-30.5 70q0 36 20.5 69t40.5 47l20 15z" />
    <glyph glyph-name="tilde" unicode="&#x2dc;" horiz-adv-x="268" 
d="M289 723l29 -76q-6 -7 -16 -17.5t-38 -27.5t-51 -17q-22 0 -68 18t-61 18q-12 0 -31.5 -7.5t-32.5 -15.5l-13 -8l-29 75q6 7 16 17t37.5 26.5t50.5 16.5q22 0 68.5 -18t58.5 -18t32 8.5t34 16.5z" />
    <glyph glyph-name="hungarumlaut" unicode="&#x2dd;" horiz-adv-x="268" 
d="M154 628l117 190l109 -67l-125 -188zM-50 628l117 189l109 -66l-125 -188z" />
    <glyph glyph-name="pi" unicode="&#x3c0;" 
d="M320 154v232h-85l-26 -386h-135l32 386q-14 0 -36 -3t-37 -7l-15 -3v109q64 18 150 18h251q25 0 52.5 3t42.5 6l14 3v-110q-24 -11 -74 -14v-234q0 -27 14 -38.5t55 -11.5v-114q-70 0 -108.5 6t-60.5 26.5t-28 49t-6 82.5z" />
    <glyph glyph-name="Wgrave" unicode="&#x1e80;" horiz-adv-x="930" 
d="M19 680h145l84 -562h15l122 562h160l122 -562h15l84 562h145l-130 -680h-209l-107 517l-107 -517h-209zM368 945l252 -106l-33 -93l-260 79z" />
    <glyph glyph-name="wgrave" unicode="&#x1e81;" horiz-adv-x="772" 
d="M24 500h132l61 -386h24l76 376h138l76 -376h24l61 386h132l-95 -500h-210l-57 306l-57 -306h-210zM264 753l252 -102l-30 -87l-262 74z" />
    <glyph glyph-name="Wacute" unicode="&#x1e82;" horiz-adv-x="930" 
d="M19 680h145l84 -562h15l122 562h160l122 -562h15l84 562h145l-130 -680h-209l-107 517l-107 -517h-209zM329 839l252 106l41 -120l-260 -79z" />
    <glyph glyph-name="wacute" unicode="&#x1e83;" horiz-adv-x="772" 
d="M24 500h132l61 -386h24l76 376h138l76 -376h24l61 386h132l-95 -500h-210l-57 306l-57 -306h-210zM251 651l252 102l40 -115l-262 -74z" />
    <glyph glyph-name="Wdieresis" unicode="&#x1e84;" horiz-adv-x="930" 
d="M19 680h145l84 -562h15l122 562h160l122 -562h15l84 562h145l-130 -680h-209l-107 517l-107 -517h-209zM292 764v132h128v-132h-128zM506 764v132h128v-132h-128z" />
    <glyph glyph-name="wdieresis" unicode="&#x1e85;" horiz-adv-x="772" 
d="M24 500h132l61 -386h24l76 376h138l76 -376h24l61 386h132l-95 -500h-210l-57 306l-57 -306h-210zM216 596v132h128v-132h-128zM432 596v132h128v-132h-128z" />
    <glyph glyph-name="uni1EAB" unicode="&#x1eab;" horiz-adv-x="511" 
d="M445 344v-208q2 -24 8 -33.5t25 -13.5l-4 -101q-51 0 -81.5 7t-61.5 28q-72 -35 -147 -35q-155 0 -155 164q0 80 43 113.5t132 39.5l107 8v31q0 31 -14 42.5t-45 11.5l-188 -8l-4 93q107 29 203 29q97 0 139.5 -40t42.5 -128zM311 220l-91 -8q-56 -5 -56 -56
q0 -59 49 -59q19 0 43.5 4t39.5 8l15 4v107zM66 550l126 151h84l128 -151h-123l-46 67l-46 -67h-123zM372 883l29 -76q-6 -7 -16 -17.5t-38 -27.5t-51 -17q-22 0 -68 18t-61 18q-12 0 -31.5 -7.5t-32.5 -15.5l-13 -8l-29 75q6 7 16 17t37.5 26.5t50.5 16.5q22 0 68.5 -18
t58.5 -18t32 8.5t34 16.5z" />
    <glyph glyph-name="uni1EB0" unicode="&#x1eb0;" horiz-adv-x="600" 
d="M17 0l153 690h262l150 -690h-138l-31 116h-232l-26 -116h-138zM277 563l-67 -314h177l-65 314h-45zM118 870h121q4 -25 21 -41t44 -16q28 0 45.5 16t20.5 41h121q-8 -68 -54.5 -109.5t-132.5 -41.5t-132 41.5t-54 109.5zM143 1114l252 -102l-30 -87l-262 74z" />
    <glyph glyph-name="uni1EC5" unicode="&#x1ec5;" horiz-adv-x="511" 
d="M273 111q36 0 82.5 2.5t74.5 4.5l28 2l2 -104q-115 -28 -208 -28q-113 0 -164 60t-51 195q0 268 221 268q218 0 218 -225l-10 -94h-294q1 -43 24 -62t77 -19zM171 295h173q0 53 -19.5 75t-66.5 22t-66.5 -23t-20.5 -74zM95 550l126 151h84l128 -151h-123l-46 67l-46 -67
h-123zM394 883l29 -76q-6 -7 -16 -17.5t-38 -27.5t-51 -17q-22 0 -68 18t-61 18q-12 0 -31.5 -7.5t-32.5 -15.5l-13 -8l-29 75q6 7 16 17t37.5 26.5t50.5 16.5q22 0 68.5 -18t58.5 -18t32 8.5t34 16.5z" />
    <glyph glyph-name="uni1ED7" unicode="&#x1ed7;" horiz-adv-x="532" 
d="M266 512q124 0 177 -68.5t53 -192.5q0 -263 -230 -263t-230 263q0 124 53 192.5t177 68.5zM266 102q53 0 73.5 36t20.5 113t-20.5 112t-73.5 35t-73.5 -35t-20.5 -112t20.5 -113t73.5 -36zM98 550l126 151h84l128 -151h-123l-46 67l-46 -67h-123zM394 883l29 -76
q-6 -7 -16 -17.5t-38 -27.5t-51 -17q-22 0 -68 18t-61 18q-12 0 -31.5 -7.5t-32.5 -15.5l-13 -8l-29 75q6 7 16 17t37.5 26.5t50.5 16.5q22 0 68.5 -18t58.5 -18t32 8.5t34 16.5z" />
    <glyph glyph-name="Ygrave" unicode="&#x1ef2;" horiz-adv-x="557" 
d="M348 275v-275h-138v275l-210 405h153l125 -271l125 271h153zM182 945l252 -106l-33 -93l-260 79z" />
    <glyph glyph-name="ygrave" unicode="&#x1ef3;" horiz-adv-x="500" 
d="M16 500h132l91 -386h23l91 386h132l-176 -710h-131l55 210h-94zM120 753l252 -102l-30 -87l-262 74z" />
    <glyph glyph-name="uni1EF8" unicode="&#x1ef8;" horiz-adv-x="541" 
d="M341 294v-294h-138v295l-208 395h153l123 -241l122 241h153zM409 914l29 -76q-6 -7 -16 -17.5t-38 -27.5t-51 -17q-22 0 -68 18t-61 18q-12 0 -31.5 -8t-32.5 -16l-13 -7l-29 75q6 7 16 17t37.5 26.5t50.5 16.5q22 0 68.5 -18t58.5 -18t32 8.5t34 17.5z" />
    <glyph glyph-name="uni1EF9" unicode="&#x1ef9;" horiz-adv-x="500" 
d="M16 499h132l91 -368h23l91 368h132l-176 -709h-131l51 210h-90zM389 723l29 -76q-6 -7 -16 -17.5t-38 -27.5t-51 -17q-22 0 -68 18t-61 18q-12 0 -31.5 -7.5t-32.5 -15.5l-13 -8l-29 75q6 7 16 17t37.5 26.5t50.5 16.5q22 0 68.5 -18t58.5 -18t32 8.5t34 16.5z" />
    <glyph glyph-name="endash" unicode="&#x2013;" horiz-adv-x="614" 
d="M57 323h500v-114h-500v114z" />
    <glyph glyph-name="emdash" unicode="&#x2014;" horiz-adv-x="1114" 
d="M57 323h1000v-114h-1000v114z" />
    <glyph glyph-name="quoteleft" unicode="&#x2018;" horiz-adv-x="259" 
d="M223 679l-48 -247h-140l85 247h103z" />
    <glyph glyph-name="quoteright" unicode="&#x2019;" horiz-adv-x="254" 
d="M41 433l47 247h141l-85 -247h-103z" />
    <glyph glyph-name="quotesinglbase" unicode="&#x201a;" horiz-adv-x="256" 
d="M23 -117l47 247h141l-85 -247h-103z" />
    <glyph glyph-name="quotedblleft" unicode="&#x201c;" horiz-adv-x="443" 
d="M407 679l-48 -247h-140l85 247h103zM223 679l-48 -247h-140l85 247h103z" />
    <glyph glyph-name="quotedblright" unicode="&#x201d;" horiz-adv-x="439" 
d="M41 434l47 247h141l-86 -247h-102zM225 434l47 247h141l-85 -247h-103z" />
    <glyph glyph-name="quotedblbase" unicode="&#x201e;" horiz-adv-x="421" 
d="M181 117l-48 -247h-140l85 247h103zM371 117l-48 -247h-140l85 247h103z" />
    <glyph glyph-name="dagger" unicode="&#x2020;" horiz-adv-x="480" 
d="M28 386v114h145v180h134v-180h145v-114h-145l-10 -457h-114l-10 457h-145z" />
    <glyph glyph-name="daggerdbl" unicode="&#x2021;" horiz-adv-x="512" 
d="M189 -71v180h-145v114h145v163h-145v114h145v180h134v-180h144v-114h-144v-163h145v-114h-145v-180h-134z" />
    <glyph glyph-name="bullet" unicode="&#x2022;" horiz-adv-x="450" 
d="M100 100v280h250v-280h-250z" />
    <glyph glyph-name="ellipsis" unicode="&#x2026;" horiz-adv-x="766" 
d="M56 0v166h144v-166h-144zM311 0v166h144v-166h-144zM566 0v166h144v-166h-144z" />
    <glyph glyph-name="perthousand" unicode="&#x2030;" horiz-adv-x="845" 
d="M149 592q-13 0 -17.5 -14.5t-4.5 -50.5t4.5 -51t17.5 -15t17.5 15t4.5 51t-4.5 50.5t-17.5 14.5zM140 -8l235 707l73 -26l-235 -705zM29 527q0 145 120 145t120 -145q0 -146 -120 -146t-120 146zM321 134q0 145 120 145t120 -145q0 -146 -120 -146t-120 146zM419 134
q0 -36 4.5 -51t17.5 -15t17.5 15t4.5 51t-4.5 50.5t-17.5 14.5t-17.5 -14.5t-4.5 -50.5zM578 134q0 145 120 145t120 -145q0 -146 -120 -146t-120 146zM676 134q0 -36 4.5 -51t17.5 -15t17.5 15t4.5 51t-4.5 50.5t-17.5 14.5t-17.5 -14.5t-4.5 -50.5z" />
    <glyph glyph-name="guilsinglleft" unicode="&#x2039;" horiz-adv-x="318" 
d="M263 319l-109 -75l109 -86v-135l-223 171v96l223 164v-135z" />
    <glyph glyph-name="guilsinglright" unicode="&#x203a;" horiz-adv-x="318" 
d="M163 254l-109 75v135l223 -164v-96l-223 -171v135z" />
    <glyph glyph-name="fraction" unicode="&#x2044;" horiz-adv-x="10" 
d="M-224 29l393 632l53 -35l-393 -633z" />
    <glyph glyph-name="zerosuperior" unicode="&#x2070;" horiz-adv-x="280" 
d="M140 801q66 0 97.5 -38t31.5 -131q0 -92 -31 -128.5t-98 -36.5t-98 36.5t-31 128.5q0 93 31.5 131t97.5 38zM140 706q-7 0 -11 -4.5t-6 -21t-2 -48.5t2.5 -47.5t6 -19t10.5 -3.5q11 0 15 12t4 58q0 47 -4 60.5t-15 13.5z" />
    <glyph glyph-name="foursuperior" unicode="&#x2074;" horiz-adv-x="280" 
d="M146 478v35h-132v88l39 189h118l-52 -182h27l14 90h91v-90h11v-95h-11v-35h-105z" />
    <glyph glyph-name="fivesuperior" unicode="&#x2075;" horiz-adv-x="280" 
d="M44 790h207v-90h-124l-3 -25q28 6 44 6q93 0 93 -99q0 -111 -118 -111q-23 0 -52.5 3.5t-47.5 7.5l-18 3l8 85q56 -9 93 -9q25 0 25 15q0 16 -14 16l-26 -4l-78 11z" />
    <glyph glyph-name="sixsuperior" unicode="&#x2076;" horiz-adv-x="280" 
d="M257 789l-6 -87q-66 6 -94 6q-33 0 -33 -26l6 1q6 1 16 2.5t16 1.5q54 0 79 -26t25 -79q0 -54 -33.5 -84.5t-85.5 -30.5q-131 0 -131 155q0 89 30.5 134t106.5 45q16 0 42 -3t44 -6zM143 601q-5 0 -10 -2t-7 -4l-2 -2q0 -34 18 -34q17 0 17 21t-16 21z" />
    <glyph glyph-name="sevensuperior" unicode="&#x2077;" horiz-adv-x="280" 
d="M26 685v105h227v-101l-95 -221l-121 19l91 185v13h-102z" />
    <glyph glyph-name="eightsuperior" unicode="&#x2078;" horiz-adv-x="280" 
d="M140 801q124 0 124 -90q0 -20 -7 -37.5t-13 -25.5l-7 -8q3 -2 8.5 -6.5t14 -22t8.5 -39.5q0 -57 -32 -81t-96 -24q-65 0 -96.5 24t-31.5 81q0 20 8 37t16 25l8 7q-27 20 -27 71q0 89 123 89zM140 552q19 0 19 22q0 13 -12 25h-14q-12 -12 -12 -25q0 -22 19 -22zM140 716
q-18 0 -18 -19q0 -12 11 -25h14q11 13 11 25q0 19 -18 19z" />
    <glyph glyph-name="ninesuperior" unicode="&#x2079;" horiz-adv-x="280" 
d="M26 481l6 87q49 -6 87 -6q33 0 33 23l-5 -1q-5 -1 -14 -2t-16 -1q-102 0 -102 104q0 55 32 85.5t87 30.5q131 0 131 -165q0 -87 -30 -128t-101 -41q-21 0 -48 3.5t-44 7.5zM138 663l19 6q0 39 -19 39q-16 0 -16 -23q0 -22 16 -22z" />
    <glyph glyph-name="zeroinferior" unicode="&#x2080;" horiz-adv-x="280" 
d="M140 223q66 0 97.5 -38t31.5 -131q0 -92 -31 -128.5t-98 -36.5t-98 36.5t-31 128.5q0 93 31.5 131t97.5 38zM140 128q-7 0 -11 -4.5t-6 -21t-2 -48.5t2.5 -47.5t6 -19t10.5 -3.5q11 0 15 12t4 58q0 47 -4 60.5t-15 13.5z" />
    <glyph glyph-name="oneinferior" unicode="&#x2081;" horiz-adv-x="280" 
d="M25 137l106 75h96v-312h-106v195l-47 -32z" />
    <glyph glyph-name="twoinferior" unicode="&#x2082;" horiz-adv-x="280" 
d="M257 -100h-231v90l73 59q46 37 46 57q0 15 -37 15l-76 -6l-4 99q73 9 118 9q61 0 86 -23t25 -77q0 -33 -13 -55.5t-43 -44.5l-38 -28h94v-95z" />
    <glyph glyph-name="threeinferior" unicode="&#x2083;" horiz-adv-x="280" 
d="M23 214q68 9 108 9q121 0 121 -89q0 -53 -29 -70q35 -15 35 -73q0 -51 -31 -76.5t-87 -25.5l-121 8l6 93q61 -6 94 -6q29 0 29 16q0 14 -26 14h-66v85h64q20 0 20 14q0 15 -27 15l-84 -5z" />
    <glyph glyph-name="fourinferior" unicode="&#x2084;" horiz-adv-x="280" 
d="M150 -100v35h-132v88l39 189h118l-52 -182h27l14 90h91v-90h11v-95h-11v-35h-105z" />
    <glyph glyph-name="fiveinferior" unicode="&#x2085;" horiz-adv-x="280" 
d="M37 212h207v-90h-124l-3 -25q28 6 44 6q93 0 93 -99q0 -111 -118 -111q-23 0 -52.5 3.5t-47.5 7.5l-18 3l8 85q56 -9 93 -9q25 0 25 15q0 16 -14 16l-26 -4l-78 11z" />
    <glyph glyph-name="sixinferior" unicode="&#x2086;" horiz-adv-x="280" 
d="M253 211l-6 -87q-66 6 -94 6q-33 0 -33 -26l6 1q6 1 16 2.5t16 1.5q54 0 79 -26t25 -79q0 -54 -33.5 -84.5t-85.5 -30.5q-131 0 -131 155q0 89 30.5 134t106.5 45q16 0 42 -3t44 -6zM139 23q-5 0 -10 -2t-7 -4l-2 -2q0 -34 18 -34q17 0 17 21t-16 21z" />
    <glyph glyph-name="seveninferior" unicode="&#x2087;" horiz-adv-x="280" 
d="M26 107v105h227v-101l-95 -221l-121 19l91 185v13h-102z" />
    <glyph glyph-name="eightinferior" unicode="&#x2088;" horiz-adv-x="280" 
d="M139 223q124 0 124 -90q0 -20 -6.5 -37.5t-13.5 -25.5l-7 -8q3 -2 8.5 -6.5t14 -22t8.5 -39.5q0 -57 -32 -81t-96 -24q-65 0 -96.5 24t-31.5 81q0 20 8 37t16 25l8 7q-27 20 -27 71q0 89 123 89zM139 -26q19 0 19 22q0 13 -12 25h-14q-12 -12 -12 -25q0 -22 19 -22z
M139 138q-18 0 -18 -19q0 -12 11 -25h14q11 13 11 25q0 19 -18 19z" />
    <glyph glyph-name="nineinferior" unicode="&#x2089;" horiz-adv-x="280" 
d="M25 -97l6 87q49 -6 87 -6q33 0 33 23l-5 -1q-5 -1 -14 -2t-16 -1q-102 0 -102 104q0 55 32 85.5t87 30.5q131 0 131 -165q0 -87 -30 -128t-101 -41q-21 0 -48 3.5t-43 7.5zM137 85l19 6q0 39 -19 39q-16 0 -16 -23q0 -22 16 -22z" />
    <glyph glyph-name="Euro" unicode="&#x20ac;" 
d="M26 355v102h62q15 117 70.5 166t174.5 49q77 0 193 -26l-4 -107q-88 14 -169 14q-58 0 -86 -20t-40 -76h235v-102h-243v-25v-41h243v-102h-231q12 -45 40 -62.5t85 -17.5q67 0 166 13l3 -109q-101 -23 -192 -23q-114 0 -170 48t-73 151h-64v102h55v41v25h-55z" />
    <glyph glyph-name="trademark" unicode="&#x2122;" horiz-adv-x="660" 
d="M80 565v79h200v-79h-41v-233h-88v233h-71zM305 331v313h103l41 -158l45 158h102v-313h-82v174l-34 -153h-55l-38 153v-174h-82z" />
    <glyph glyph-name="Omega" unicode="&#x2126;" 
d="M52 105h80q-4 4 -10 12.5t-22 36.5t-28 58.5t-22 77.5t-10 95q0 151 56 219t184 68t184 -68t56 -219q0 -76 -23 -146t-46 -102l-23 -32h80v-114h-208v99q9 15 22 41t34.5 94.5t21.5 124.5q0 116 -18.5 159t-79.5 43t-79.5 -43t-18.5 -159q0 -56 19.5 -121t38.5 -102
l20 -37v-99h-208v114z" />
    <glyph glyph-name="partialdiff" unicode="&#x2202;" 
d="M85 564l-4 103q85 45 181 45q135 0 195.5 -89t60.5 -276q0 -183 -60 -269.5t-195 -86.5q-235 0 -235 225q0 106 57 164t162 58q30 0 62 -6t49 -12l16 -6q-6 105 -34 144.5t-101 39.5q-32 0 -70.5 -8.5t-60.5 -17.5zM264 324q-92 0 -92 -108q0 -111 91 -111
q56 0 83.5 46.5t27.5 150.5q-38 22 -110 22z" />
    <glyph glyph-name="Delta" unicode="&#x2206;" 
d="M44 104l124 556h225l123 -558v-102h-472v104zM294 548h-27l-90 -434h206z" />
    <glyph glyph-name="product" unicode="&#x220f;" 
d="M335 -180v820h-113v-820h-138v820h-53v120h499v-120h-57v-820h-138z" />
    <glyph glyph-name="summation" unicode="&#x2211;" 
d="M268 298l-238 322v140h500v-120h-354v-15l215 -281v-93l-215 -296v-15h354v-120h-500v139z" />
    <glyph glyph-name="minus" unicode="&#x2212;" 
d="M62 191v120h436v-120h-436z" />
    <glyph glyph-name="radical" unicode="&#x221a;" 
d="M1 320v120h166l92 -456h13l163 807h136l-200 -921h-214l-102 450h-54z" />
    <glyph glyph-name="infinity" unicode="&#x221e;" 
d="M166 121q-139 0 -139 170q0 172 137 172q75 0 116 -78q41 78 116 78q137 0 137 -171t-139 -171q-75 0 -114 77q-40 -77 -114 -77zM235 292q-28 56 -50 56q-36 0 -36 -57q0 -55 36 -55q13 0 24 13.5t26 42.5zM325 292q15 -29 26 -42.5t24 -13.5q36 0 36 55q0 57 -36 57
q-22 0 -50 -56z" />
    <glyph glyph-name="integral" unicode="&#x222b;" 
d="M345 -16q0 -183 -149 -183q-17 0 -41.5 3.5t-40.5 6.5l-15 3l4 110q25 -3 53 -3q29 0 40 14.5t11 51.5v606q0 106 33 147t116 41q17 0 43 -3.5t44 -7.5l18 -3l-4 -110q-32 4 -64 4q-28 0 -38 -15.5t-10 -53.5v-608z" />
    <glyph glyph-name="approxequal" unicode="&#x2248;" 
d="M491 423l8 -107q-6 -6 -16.5 -14.5t-40.5 -22.5t-57 -14q-30 0 -109.5 22t-96.5 22q-22 0 -49.5 -9.5t-43.5 -19.5l-17 -10l-10 107q7 6 19 14.5t45 23t60 14.5q28 0 104.5 -22t100.5 -22q17 0 43 9.5t43 19.5zM491 203l8 -107q-6 -6 -16.5 -14.5t-40.5 -22.5t-57 -14
q-30 0 -109.5 22t-96.5 22q-22 0 -49.5 -9.5t-43.5 -19.5l-17 -10l-10 107q7 6 19 14.5t45 23t60 14.5q28 0 104.5 -22t100.5 -22q17 0 43 9.5t43 19.5z" />
    <glyph glyph-name="notequal" unicode="&#x2260;" 
d="M57 295v121h228l68 154l104 -41l-50 -113h94v-121h-147l-38 -87h185v-121h-238l-63 -143l-104 41l45 102h-84v121h137l38 87h-175z" />
    <glyph glyph-name="lessequal" unicode="&#x2264;" 
d="M487 386l-272 -49l272 -54v-130l-421 121v116l421 126v-130zM66 19v120h421v-120h-421z" />
    <glyph glyph-name="greaterequal" unicode="&#x2265;" 
d="M345 337l-272 49v130l421 -126v-116l-421 -121v130zM494 139v-120h-421v120h421z" />
    <glyph glyph-name="lozenge" unicode="&#x25ca;" 
d="M193 0l-149 324l149 336h175l148 -336l-148 -324h-175zM289 114l94 210l-94 222h-17l-95 -222l95 -210h17z" />
    <glyph glyph-name="commaaccent" unicode="&#xf6c3;" horiz-adv-x="170" 
d="M-5 -311l46 234h130l-55 -234h-121z" />
    <glyph glyph-name="zero.pnum" horiz-adv-x="536" 
d="M268 509q109 0 168 -61.5t59 -204.5q0 -141 -57.5 -196.5t-169.5 -55.5t-169.5 55.5t-57.5 196.5q0 143 59 204.5t168 61.5zM268 395q-53 0 -77.5 -32t-24.5 -120q0 -79 24.5 -108.5t77.5 -29.5t77.5 29.5t24.5 108.5q0 88 -24.5 120t-77.5 32z" />
    <glyph glyph-name="one.pnum" horiz-adv-x="396" 
d="M13 379l213 121h105v-500h-125v355l-147 -77z" />
    <glyph glyph-name="two.pnum" horiz-adv-x="487" 
d="M445 0h-401v109l127 91q78 55 105.5 83.5t27.5 57.5t-23.5 38.5t-83.5 9.5q-15 0 -51 -3.5l-65 -6.5t-29 -4l-8 114q120 20 199 20q196 0 196 -149q0 -61 -29 -98.5t-102 -88.5l-83 -58h220v-115z" />
    <glyph glyph-name="three.pnum" horiz-adv-x="481" 
d="M44 491q115 19 191 19q94 0 142.5 -28.5t48.5 -95.5q0 -82 -64 -119q79 -35 79 -120q0 -78 -55 -117t-144 -39q-37 0 -88.5 5.5t-84.5 11.5l-33 5l15 114q110 -11 191 -11q43 0 58.5 10.5t15.5 33.5q0 37 -78 37h-132v110h131q64 0 64 43q0 40 -65 40q-39 0 -84 -3
t-70 -5l-26 -3z" />
    <glyph glyph-name="four.pnum" horiz-adv-x="484" 
d="M288 0v82h-259v90l126 328h133l-122 -298h122v114h125v-114h41v-120h-41v-82h-125z" />
    <glyph glyph-name="five.pnum" horiz-adv-x="506" 
d="M74 504h375v-132h-261l-12 -67q44 18 91 18q98 0 150 -41t52 -119q0 -80 -54.5 -126t-157.5 -46q-40 0 -95 8t-90 16l-35 8l15 114q126 -24 200 -24q79 0 79 42q0 50 -82 50q-18 0 -42.5 -5.5t-40.5 -10.5l-15 -5l-99 19z" />
    <glyph glyph-name="six.pnum" horiz-adv-x="511" 
d="M450 494l-9 -104q-108 9 -172 9q-103 0 -103 -102q67 27 120 27q192 0 192 -167q0 -79 -62.5 -123t-162.5 -44q-106 0 -159 62.5t-53 201.5q0 133 63.5 194t164.5 61q42 0 87 -3.5t70 -7.5zM265 207q-18 0 -42.5 -3t-40.5 -6l-16 -3q3 -95 97 -95q90 0 90 57q0 50 -88 50
z" />
    <glyph glyph-name="seven.pnum" horiz-adv-x="421" 
d="M27 390v110h367v-133l-197 -376l-107 29l185 347v23h-248z" />
    <glyph glyph-name="eight.pnum" horiz-adv-x="502" 
d="M251 509q93 0 146 -34.5t53 -106.5q0 -67 -64 -107q26 -17 38.5 -27t25 -35.5t12.5 -62.5q0 -73 -59 -109.5t-152 -36.5t-152 36.5t-59 109.5q0 48 20 76.5t56 48.5q-64 40 -64 107q0 72 53 106.5t146 34.5zM251 98q86 0 86 50q0 23 -13.5 36t-42.5 23h-60
q-56 -20 -56 -59q0 -50 86 -50zM251 401q-38 0 -56 -13t-18 -31q0 -38 44 -55h60q44 15 44 56q0 18 -18 30.5t-56 12.5z" />
    <glyph glyph-name="nine.pnum" horiz-adv-x="486" 
d="M55 13l12 103q77 -13 157 -13q45 0 70 27t25 74l-11 -4q-10 -4 -35 -9t-54 -5q-184 0 -184 155q0 80 55 124.5t146 44.5q210 0 210 -259q0 -136 -60.5 -198t-161.5 -62q-45 0 -87 5.5t-62 11.5zM230 294q24 0 45 4t29 8l9 5q-2 89 -82 89q-37 0 -54 -13.5t-17 -43.5
q0 -22 18.5 -35.5t51.5 -13.5z" />
    <glyph glyph-name="questiondown.cap" horiz-adv-x="425" 
d="M26 152q0 70 15.5 105.5t66.5 73.5q49 37 62 57t13 44v31h107q31 -34 31 -91q0 -36 -72 -94q-55 -44 -69.5 -63.5t-14.5 -47.5q0 -59 85 -59q30 0 66 4t57 8l21 4l7 -101q-86 -35 -170 -35q-108 0 -156.5 39t-48.5 125zM312 680v-161h-144v161h144z" />
    <glyph glyph-name="endash.cap" horiz-adv-x="618" 
d="M59 353h500v-114h-500v114z" />
    <glyph glyph-name="emdash.cap" horiz-adv-x="1118" 
d="M59 353h1000v-114h-1000v114z" />
    <glyph glyph-name="periodcentered.cap" horiz-adv-x="256" 
d="M56 245v166h144v-166h-144z" />
    <glyph glyph-name="exclamdown.cap" horiz-adv-x="280" 
d="M212 681v-161h-144v161h144zM199 431l13 -430h-145l14 430h118z" />
    <glyph glyph-name="parenleft.cap" horiz-adv-x="308" 
d="M154 780h127q-11 -28 -26.5 -75t-42 -166.5t-26.5 -207.5t23.5 -194.5t47.5 -168.5l24 -63h-127q-5 8 -12.5 22t-27.5 59t-35.5 92t-28 116.5t-12.5 136.5t12 138t29 124t34 97t29 67z" />
    <glyph glyph-name="parenright.cap" horiz-adv-x="308" 
d="M154 -90h-127q11 28 26.5 75t42 166.5t26.5 207.5t-24 194.5t-48 168.5l-23 63h127q5 -8 12.5 -22t27.5 -59t35.5 -92t28 -116.5t12.5 -136.5t-12 -138t-29 -124t-34 -97t-29 -67z" />
    <glyph glyph-name="bracketleft.cap" horiz-adv-x="355" 
d="M320 779v-120h-115v-632h115v-120h-252v872h252z" />
    <glyph glyph-name="bracketright.cap" horiz-adv-x="355" 
d="M35 659v120h252v-872h-252v120h115v632h-115z" />
    <glyph glyph-name="braceleft.cap" horiz-adv-x="361" 
d="M259 202q0 -14 -3.5 -57t-3.5 -60q0 -34 14.5 -53t56.5 -22v-114q-111 4 -156.5 43t-45.5 129q0 21 3.5 65.5t3.5 55.5q0 73 -112 102v104q112 26 112 94q0 13 -3.5 60t-3.5 67q0 95 45.5 133t158.5 42v-114q-43 -4 -58.5 -21t-15.5 -50q0 -17 3.5 -65.5t3.5 -62.5
q0 -63 -20.5 -90t-91.5 -44q70 -17 91.5 -47.5t21.5 -94.5z" />
    <glyph glyph-name="braceright.cap" horiz-adv-x="362" 
d="M102 481q0 14 3.5 57t3.5 60q0 34 -14.5 53t-56.5 22v114q111 -4 156.5 -43t45.5 -129q0 -21 -3.5 -65.5t-3.5 -55.5q0 -73 112 -102v-104q-112 -26 -112 -94q0 -13 3.5 -60t3.5 -67q0 -95 -45.5 -133t-158.5 -42v114q43 4 58.5 21t15.5 50q0 17 -3.5 65.5t-3.5 62.5
q0 63 20.5 90t91.5 44q-70 17 -91.5 47.5t-21.5 94.5z" />
    <glyph glyph-name="grave.cap" horiz-adv-x="268" 
d="M50 945l252 -106l-33 -93l-260 79z" />
    <glyph glyph-name="acute.cap" horiz-adv-x="268" 
d="M1 839l252 106l41 -120l-260 -79z" />
    <glyph glyph-name="circumflex.cap" horiz-adv-x="486" 
d="M24 765l134 149h117l134 -149h-142l-49 56l-52 -56h-142z" />
    <glyph glyph-name="caron.cap" horiz-adv-x="268" 
d="M88 765l-134 149h142l52 -56l49 56h142l-134 -149h-117z" />
    <glyph glyph-name="tilde.cap" horiz-adv-x="268" 
d="M316 918l29 -97q-6 -7 -16.5 -17.5t-38.5 -28t-52 -17.5q-28 0 -91.5 23t-77.5 23q-12 0 -32 -10.5t-34 -21.5l-14 -10l-29 96q6 7 16.5 17.5t38.5 28.5t52 18q35 0 96 -23t71 -23q12 0 32.5 10.5t35.5 21.5z" />
    <glyph glyph-name="dieresis.cap" horiz-adv-x="268" 
d="M-42 764v132h128v-132h-128zM172 764v132h128v-132h-128z" />
    <glyph glyph-name="macron.cap" horiz-adv-x="268" 
d="M-25 782v98h347v-98h-347z" />
    <glyph glyph-name="breve.cap" horiz-adv-x="268" 
d="M-30 910h121q4 -25 21 -41t44 -16q28 0 45.5 16t20.5 41h121q-8 -68 -54.5 -109.5t-132.5 -41.5t-132 41.5t-54 109.5z" />
    <glyph glyph-name="ring.cap" horiz-adv-x="268" 
d="M299 721q0 -59 -43 -92.5t-107 -33.5t-107 33.5t-43 92.5t43 92.5t107 33.5t107 -33.5t43 -92.5zM90 721q0 -19 16 -30t43 -11t43 11t16 30t-16 30t-43 11t-43 -11t-16 -30z" />
    <glyph glyph-name="hungarumlaut.cap" horiz-adv-x="268" 
d="M185 775l67 197l116 -42l-78 -191zM-23 776l67 197l116 -42l-78 -191z" />
    <glyph glyph-name="dotaccent.cap" horiz-adv-x="268" 
d="M67 767v135h134v-135h-134z" />
    <glyph glyph-name="zero.numr" horiz-adv-x="280" 
d="M140 701q66 0 97.5 -38t31.5 -131q0 -92 -31 -128.5t-98 -36.5t-98 36.5t-31 128.5q0 93 31.5 131t97.5 38zM140 606q-7 0 -11 -4.5t-6 -21t-2 -48.5t2.5 -47.5t6 -19t10.5 -3.5q11 0 15 12t4 58q0 47 -4 60.5t-15 13.5z" />
    <glyph glyph-name="one.numr" horiz-adv-x="280" 
d="M20 615l106 75h96v-312h-106v195l-47 -32z" />
    <glyph glyph-name="two.numr" horiz-adv-x="280" 
d="M255 378h-231v90l73 59q46 37 46 57q0 15 -37 15l-76 -6l-4 99q73 9 118 9q61 0 86 -23t25 -77q0 -33 -13 -55.5t-43 -44.5l-38 -28h94v-95z" />
    <glyph glyph-name="three.numr" horiz-adv-x="280" 
d="M27 692q68 9 108 9q121 0 121 -89q0 -53 -29 -70q35 -15 35 -73q0 -51 -31 -76.5t-87 -25.5l-121 8l6 93q61 -6 94 -6q29 0 29 16q0 14 -26 14h-66v85h64q20 0 20 14q0 15 -27 15l-84 -5z" />
    <glyph glyph-name="four.numr" horiz-adv-x="280" 
d="M147 378v35h-132v88l39 189h118l-52 -182h27l14 90h91v-90h11v-95h-11v-35h-105z" />
    <glyph glyph-name="five.numr" horiz-adv-x="280" 
d="M43 690h207v-90h-124l-3 -25q28 6 44 6q93 0 93 -99q0 -111 -118 -111q-23 0 -52.5 3.5t-47.5 7.5l-18 3l8 85q56 -9 93 -9q25 0 25 15q0 16 -14 16l-26 -4l-78 11z" />
    <glyph glyph-name="six.numr" horiz-adv-x="280" 
d="M255 689l-6 -87q-66 6 -94 6q-33 0 -33 -26l6 1q6 1 16 2.5t16 1.5q54 0 79 -26t25 -79q0 -54 -33.5 -84.5t-85.5 -30.5q-131 0 -131 155q0 89 30.5 134t106.5 45q16 0 42 -3t44 -6zM141 501q-5 0 -10 -2t-7 -4l-2 -2q0 -34 18 -34q17 0 17 21t-16 21z" />
    <glyph glyph-name="seven.numr" horiz-adv-x="280" 
d="M31 585v105h227v-101l-95 -221l-121 19l91 185v13h-102z" />
    <glyph glyph-name="eight.numr" horiz-adv-x="280" 
d="M139 701q124 0 124 -90q0 -20 -6.5 -37.5t-13.5 -25.5l-7 -8q3 -2 8.5 -6.5t14 -22t8.5 -39.5q0 -57 -32 -81t-96 -24q-65 0 -96.5 24t-31.5 81q0 20 8 37t16 25l8 7q-27 20 -27 71q0 89 123 89zM139 452q19 0 19 22q0 13 -12 25h-14q-12 -12 -12 -25q0 -22 19 -22z
M139 616q-18 0 -18 -19q0 -12 11 -25h14q11 13 11 25q0 19 -18 19z" />
    <glyph glyph-name="nine.numr" horiz-adv-x="280" 
d="M28 381l6 87q49 -6 87 -6q33 0 33 23l-5 -1q-5 -1 -14 -2t-16 -1q-102 0 -102 104q0 55 32 85.5t87 30.5q131 0 131 -165q0 -87 -30 -128t-101 -41q-21 0 -48 3.5t-44 7.5zM140 563l19 6q0 39 -19 39q-16 0 -16 -23q0 -22 16 -22z" />
    <glyph glyph-name="zero.slash" 
d="M251 275v100h58v-100h-58zM280 672q127 0 191.5 -82t64.5 -264q0 -181 -64 -259.5t-192 -78.5t-192 78.5t-64 259.5q0 182 64.5 264t191.5 82zM281 552q-62 0 -88.5 -50t-26.5 -176q0 -120 27 -169t88 -49t87 49t26 169q0 127 -26 176.5t-87 49.5z" />
    <glyph glyph-name="at.cap" horiz-adv-x="968" 
d="M942 305v-8q0 -154 -48.5 -225.5t-144.5 -71.5q-29 0 -53.5 6t-38.5 14t-24 16t-13 14l-4 6q-80 -56 -148 -56q-94 0 -140.5 58.5t-46.5 192.5q0 127 43.5 188t147.5 61q16 0 39 -6t37 -12l15 -7v13h134v-179q0 -49 0.5 -78t2.5 -53.5t5 -35.5t9.5 -19t13.5 -9.5t19 -1.5
q32 0 46.5 39t14.5 146v9q0 160 -73.5 232.5t-233.5 72.5q-161 0 -246 -92t-85 -258q0 -185 76 -268.5t255 -83.5l143 9l5 -117q-90 -10 -148 -10q-115 0 -198 23t-144.5 76.5t-92 145.5t-30.5 225q0 231 125 349.5t340 118.5q219 0 330 -108.5t111 -315.5zM479 118
q38 0 90 25q-6 36 -6 106v123q-42 10 -61 10q-52 0 -68.5 -29t-16.5 -102q0 -133 62 -133z" />
    <glyph glyph-name="zero.dnom" horiz-adv-x="280" 
d="M140 323q66 0 97.5 -38t31.5 -131q0 -92 -31 -128.5t-98 -36.5t-98 36.5t-31 128.5q0 93 31.5 131t97.5 38zM140 228q-7 0 -11 -4.5t-6 -21t-2 -48.5t2.5 -47.5t6 -19t10.5 -3.5q11 0 15 12t4 58q0 47 -4 60.5t-15 13.5z" />
    <glyph glyph-name="one.dnom" horiz-adv-x="280" 
d="M21 237l106 75h96v-312h-106v195l-47 -32z" />
    <glyph glyph-name="two.dnom" horiz-adv-x="280" 
d="M257 0h-231v90l73 59q46 37 46 57q0 15 -37 15l-76 -6l-4 99q73 9 118 9q61 0 86 -23t25 -77q0 -33 -13 -55.5t-43 -44.5l-38 -28h94v-95z" />
    <glyph glyph-name="three.dnom" horiz-adv-x="280" 
d="M27 314q68 9 108 9q121 0 121 -89q0 -53 -29 -70q35 -15 35 -73q0 -51 -31 -76.5t-87 -25.5l-121 8l6 93q61 -6 94 -6q29 0 29 16q0 14 -26 14h-66v85h64q20 0 20 14q0 15 -27 15l-84 -5z" />
    <glyph glyph-name="four.dnom" horiz-adv-x="280" 
d="M149 0v35h-132v88l39 189h118l-52 -182h27l14 90h91v-90h11v-95h-11v-35h-105z" />
    <glyph glyph-name="five.dnom" horiz-adv-x="280" 
d="M40 312h207v-90h-124l-3 -25q28 6 44 6q93 0 93 -99q0 -111 -118 -111q-23 0 -52.5 3.5t-47.5 7.5l-18 3l8 85q56 -9 93 -9q25 0 25 15q0 16 -14 16l-26 -4l-78 11z" />
    <glyph glyph-name="six.dnom" horiz-adv-x="280" 
d="M253 311l-6 -87q-66 6 -94 6q-33 0 -33 -26l6 1q6 1 16 2.5t16 1.5q54 0 79 -26t25 -79q0 -54 -33.5 -84.5t-85.5 -30.5q-131 0 -131 155q0 89 30.5 134t106.5 45q16 0 42 -3t44 -6zM139 123q-5 0 -10 -2t-7 -4l-2 -2q0 -34 18 -34q17 0 17 21t-16 21z" />
    <glyph glyph-name="seven.dnom" horiz-adv-x="280" 
d="M29 207v105h227v-101l-95 -221l-121 19l91 185v13h-102z" />
    <glyph glyph-name="eight.dnom" horiz-adv-x="280" 
d="M140 323q124 0 124 -90q0 -20 -7 -37.5t-13 -25.5l-7 -8q3 -2 8.5 -6.5t14 -22t8.5 -39.5q0 -57 -32 -81t-96 -24q-65 0 -96.5 24t-31.5 81q0 20 8 37t16 25l8 7q-27 20 -27 71q0 89 123 89zM140 74q19 0 19 22q0 13 -12 25h-14q-12 -12 -12 -25q0 -22 19 -22zM140 238
q-18 0 -18 -19q0 -12 11 -25h14q11 13 11 25q0 19 -18 19z" />
    <glyph glyph-name="nine.dnom" horiz-adv-x="280" 
d="M26 3l6 87q49 -6 87 -6q33 0 33 23l-5 -1q-5 -1 -14 -2t-16 -1q-102 0 -102 104q0 55 32 85.5t87 30.5q131 0 131 -165q0 -87 -30 -128t-101 -41q-21 0 -48 3.5t-44 7.5zM138 185l19 6q0 39 -19 39q-16 0 -16 -23q0 -22 16 -22z" />
    <glyph glyph-name="hyphen.cap" horiz-adv-x="408" 
d="M56 235v122h296v-122h-296z" />
    <glyph glyph-name="Tcedilla" horiz-adv-x="0" 
 />
    <glyph glyph-name="tcedilla" horiz-adv-x="364" 
d="M284 -127q0 -57 -29 -85.5t-82 -28.5q-19 0 -42.5 2.5t-36.5 5.5l-14 3l4 78q31 -1 48 -1q38 0 38 26q0 22 -38 22h-24v106h45q-40 16 -55.5 57t-15.5 120v208h-59v114h59v139h134v-139h123v-114h-123v-205q0 -30 1.5 -42.5t11 -21.5t29.5 -9l76 2l6 -107
q-67 -15 -102 -15q-48 0 -77 10v-35q64 -1 93.5 -19t29.5 -71z" />
    </font>
</defs>
</svg>
